<?xml version="1.0" encoding="utf-8"?>
<!-- Generator: Adobe Illustrator 27.5.0, SVG Export Plug-In . SVG Version: 6.00 Build 0)  -->
<svg version="1.1" xmlns="http://www.w3.org/2000/svg" xmlns:xlink="http://www.w3.org/1999/xlink" x="0px" y="0px"
	 viewBox="0 0 500 500" style="enable-background:new 0 0 500 500;" xml:space="preserve">
<g id="BACKGROUND">
	<rect style="fill:#FFFFFF;" width="500" height="500"/>
</g>
<g id="OBJECTS">
	<g>
		<g>
			<g>
				<g>
					<linearGradient id="SVGID_1_" gradientUnits="userSpaceOnUse" x1="87.5607" y1="156.6396" x2="161.5415" y2="36.5955">
						<stop  offset="0.0413" style="stop-color:#C285F9"/>
						<stop  offset="0.4741" style="stop-color:#97B3F9"/>
						<stop  offset="0.9556" style="stop-color:#64EBF9"/>
					</linearGradient>
					<path style="fill:url(#SVGID_1_);" d="M131.61,97.617c-1.465,0-2.652-1.187-2.652-2.652V77.799c0-3,1.168-5.821,3.29-7.942
						l9.569-9.569c1.035-1.036,2.715-1.036,3.75,0c1.036,1.035,1.036,2.715,0,3.75l-9.569,9.569
						c-1.119,1.12-1.736,2.608-1.736,4.191v17.165C134.262,96.429,133.075,97.617,131.61,97.617z"/>
				</g>
				<g>
					
						<linearGradient id="SVGID_00000151523728639673419340000018030256079663508125_" gradientUnits="userSpaceOnUse" x1="87.2857" y1="156.4706" x2="161.2666" y2="36.4262">
						<stop  offset="0.0413" style="stop-color:#C285F9"/>
						<stop  offset="0.4741" style="stop-color:#97B3F9"/>
						<stop  offset="0.9556" style="stop-color:#64EBF9"/>
					</linearGradient>
					<path style="fill:url(#SVGID_00000151523728639673419340000018030256079663508125_);" d="M148.155,66.66
						c-2.295,0-4.59-0.874-6.337-2.621c-1.693-1.692-2.625-3.944-2.625-6.337c0-2.394,0.932-4.645,2.625-6.338
						c3.495-3.493,9.182-3.494,12.675,0.001c1.693,1.692,2.625,3.943,2.625,6.337c0,2.394-0.932,4.645-2.625,6.337
						C152.745,65.787,150.45,66.66,148.155,66.66z M148.155,54.045c-0.937,0-1.874,0.356-2.587,1.07
						c-0.692,0.69-1.072,1.609-1.072,2.587c0,0.977,0.381,1.896,1.072,2.587c1.426,1.427,3.747,1.427,5.173,0
						c0.691-0.69,1.072-1.609,1.072-2.587c0-0.977-0.38-1.896-1.071-2.587C150.029,54.402,149.091,54.045,148.155,54.045z"/>
				</g>
			</g>
			<g>
				<g>
					
						<linearGradient id="SVGID_00000145042395677521496040000011198985841914140828_" gradientUnits="userSpaceOnUse" x1="79.6314" y1="151.7528" x2="153.612" y2="31.709">
						<stop  offset="0.0413" style="stop-color:#C285F9"/>
						<stop  offset="0.4741" style="stop-color:#97B3F9"/>
						<stop  offset="0.9556" style="stop-color:#64EBF9"/>
					</linearGradient>
					<path style="fill:url(#SVGID_00000145042395677521496040000011198985841914140828_);" d="M127.542,98.709
						c-0.917,0-1.808-0.476-2.3-1.326l-8.583-14.866c-1.499-2.598-1.898-5.625-1.122-8.522l3.503-13.072
						c0.379-1.414,1.836-2.252,3.248-1.876c1.415,0.38,2.255,1.833,1.876,3.248l-3.503,13.072c-0.41,1.53-0.2,3.126,0.592,4.497
						l8.583,14.866c0.732,1.268,0.298,2.891-0.971,3.623C128.448,98.594,127.992,98.709,127.542,98.709z"/>
				</g>
				<g>
					
						<linearGradient id="SVGID_00000088102153223126936390000016098550133331238579_" gradientUnits="userSpaceOnUse" x1="68.2465" y1="144.7369" x2="142.2273" y2="24.6927">
						<stop  offset="0.0413" style="stop-color:#C285F9"/>
						<stop  offset="0.4741" style="stop-color:#97B3F9"/>
						<stop  offset="0.9556" style="stop-color:#64EBF9"/>
					</linearGradient>
					<path style="fill:url(#SVGID_00000088102153223126936390000016098550133331238579_);" d="M123.233,64.477
						c-0.765,0-1.543-0.099-2.317-0.306c-2.313-0.62-4.245-2.103-5.442-4.177c-1.197-2.073-1.515-4.489-0.895-6.801
						c0.619-2.312,2.102-4.245,4.176-5.442c2.073-1.197,4.489-1.514,6.801-0.895c4.772,1.278,7.616,6.202,6.337,10.976l0,0
						C130.821,61.832,127.19,64.477,123.233,64.477z M123.229,51.853c-0.634,0-1.26,0.166-1.823,0.491
						c-0.846,0.489-1.451,1.278-1.704,2.222c-0.523,1.949,0.638,3.959,2.587,4.481c1.949,0.523,3.957-0.639,4.48-2.587l0,0
						c0.522-1.949-0.638-3.959-2.587-4.48C123.867,51.895,123.547,51.853,123.229,51.853z M129.331,57.146h0.014H129.331z"/>
				</g>
			</g>
			<g>
				<g>
					
						<linearGradient id="SVGID_00000183237113654676648330000013367587993180257933_" gradientUnits="userSpaceOnUse" x1="74.5427" y1="148.6171" x2="148.5236" y2="28.5729">
						<stop  offset="0.0413" style="stop-color:#C285F9"/>
						<stop  offset="0.4741" style="stop-color:#97B3F9"/>
						<stop  offset="0.9556" style="stop-color:#64EBF9"/>
					</linearGradient>
					<path style="fill:url(#SVGID_00000183237113654676648330000013367587993180257933_);" d="M124.556,101.688
						c-0.45,0-0.906-0.115-1.324-0.356l-14.866-8.582c-2.597-1.499-4.455-3.922-5.232-6.82l-3.503-13.072
						c-0.379-1.415,0.461-2.869,1.876-3.248c1.414-0.382,2.869,0.461,3.248,1.876l3.503,13.072c0.41,1.529,1.39,2.807,2.761,3.599
						l14.866,8.582c1.268,0.733,1.703,2.354,0.971,3.623C126.364,101.213,125.473,101.688,124.556,101.688z"/>
				</g>
				<g>
					
						<linearGradient id="SVGID_00000160180267797716036210000018413627071128789934_" gradientUnits="userSpaceOnUse" x1="56.5306" y1="137.5167" x2="130.5113" y2="17.4726">
						<stop  offset="0.0413" style="stop-color:#C285F9"/>
						<stop  offset="0.4741" style="stop-color:#97B3F9"/>
						<stop  offset="0.9556" style="stop-color:#64EBF9"/>
					</linearGradient>
					<path style="fill:url(#SVGID_00000160180267797716036210000018413627071128789934_);" d="M100.563,75.04
						c-3.958,0-7.589-2.645-8.66-6.644c-0.619-2.313-0.301-4.728,0.896-6.801c1.197-2.073,3.13-3.556,5.442-4.176
						c2.313-0.619,4.727-0.302,6.801,0.896c2.073,1.197,3.556,3.13,4.176,5.442l0.001,0.001c1.279,4.773-1.564,9.697-6.337,10.977
						C102.107,74.941,101.328,75.04,100.563,75.04z M100.559,62.418c-0.312,0-0.63,0.04-0.945,0.125
						c-0.945,0.253-1.733,0.859-2.222,1.705c-0.489,0.846-0.619,1.833-0.365,2.777c0.253,0.944,0.858,1.733,1.704,2.221
						c0.848,0.488,1.835,0.618,2.777,0.365c1.948-0.522,3.109-2.532,2.587-4.48l0,0C103.656,63.497,102.175,62.418,100.559,62.418z"
						/>
				</g>
			</g>
			<g>
				<g>
					
						<linearGradient id="SVGID_00000121274617589974351680000004949384304701898937_" gradientUnits="userSpaceOnUse" x1="75.0898" y1="148.9543" x2="149.0705" y2="28.9104">
						<stop  offset="0.0413" style="stop-color:#C285F9"/>
						<stop  offset="0.4741" style="stop-color:#97B3F9"/>
						<stop  offset="0.9556" style="stop-color:#64EBF9"/>
					</linearGradient>
					<path style="fill:url(#SVGID_00000121274617589974351680000004949384304701898937_);" d="M123.468,105.759h-17.165
						c-3,0-5.821-1.168-7.941-3.289l-9.57-9.569c-1.036-1.036-1.036-2.715-0.001-3.751c1.036-1.036,2.716-1.035,3.751-0.001
						l9.57,9.569c1.12,1.12,2.608,1.736,4.191,1.736h17.165c1.465,0,2.652,1.187,2.652,2.652
						C126.12,104.572,124.933,105.759,123.468,105.759z"/>
				</g>
				<g>
					
						<linearGradient id="SVGID_00000133518172327778847010000007319479200524749226_" gradientUnits="userSpaceOnUse" x1="55.2786" y1="136.7449" x2="129.2593" y2="16.7009">
						<stop  offset="0.0413" style="stop-color:#C285F9"/>
						<stop  offset="0.4741" style="stop-color:#97B3F9"/>
						<stop  offset="0.9556" style="stop-color:#64EBF9"/>
					</linearGradient>
					<path style="fill:url(#SVGID_00000133518172327778847010000007319479200524749226_);" d="M86.205,95.526
						c-2.394,0-4.645-0.932-6.337-2.625c-1.693-1.692-2.625-3.944-2.625-6.337c0-2.394,0.932-4.645,2.625-6.338
						c1.692-1.692,3.944-2.625,6.337-2.625c2.394,0,4.645,0.932,6.337,2.625l0,0c-0.001,0,0.001,0.001,0.001,0.001
						c1.692,1.692,2.624,3.942,2.624,6.337c0,2.394-0.932,4.645-2.625,6.337C90.85,94.593,88.599,95.526,86.205,95.526z
						 M86.205,82.904c-0.977,0-1.896,0.381-2.587,1.072c-0.692,0.69-1.072,1.609-1.072,2.587c0,0.977,0.381,1.896,1.072,2.587
						c1.381,1.382,3.792,1.383,5.173,0.001c0.691-0.691,1.072-1.61,1.072-2.587c0-0.977-0.38-1.896-1.071-2.587l-0.001-0.001
						C88.101,83.285,87.182,82.904,86.205,82.904z"/>
				</g>
			</g>
			<g>
				<g>
					
						<linearGradient id="SVGID_00000122703859658948955320000014238497464149266048_" gradientUnits="userSpaceOnUse" x1="81.1264" y1="152.6746" x2="155.1073" y2="32.6303">
						<stop  offset="0.0413" style="stop-color:#C285F9"/>
						<stop  offset="0.4741" style="stop-color:#97B3F9"/>
						<stop  offset="0.9556" style="stop-color:#64EBF9"/>
					</linearGradient>
					<path style="fill:url(#SVGID_00000122703859658948955320000014238497464149266048_);" d="M105.421,119.568
						c-0.975,0-1.957-0.128-2.924-0.387l-13.072-3.503c-1.415-0.38-2.255-1.833-1.876-3.248c0.38-1.415,1.833-2.25,3.248-1.876
						l13.072,3.503c1.529,0.41,3.126,0.199,4.497-0.592l14.866-8.582c1.271-0.731,2.892-0.297,3.623,0.971
						c0.732,1.269,0.298,2.89-0.971,3.623l-14.866,8.582C109.288,119.057,107.368,119.568,105.421,119.568z"/>
				</g>
				<g>
					
						<linearGradient id="SVGID_00000034775014303564916360000007232293943752512915_" gradientUnits="userSpaceOnUse" x1="64.821" y1="142.6259" x2="138.8017" y2="22.5819">
						<stop  offset="0.0413" style="stop-color:#C285F9"/>
						<stop  offset="0.4741" style="stop-color:#97B3F9"/>
						<stop  offset="0.9556" style="stop-color:#64EBF9"/>
					</linearGradient>
					<path style="fill:url(#SVGID_00000034775014303564916360000007232293943752512915_);" d="M84.013,120.446
						c-0.765,0-1.543-0.099-2.317-0.306c-4.774-1.28-7.617-6.204-6.338-10.977c0.62-2.313,2.103-4.246,4.177-5.442
						c2.073-1.197,4.487-1.514,6.801-0.896l0,0c2.313,0.62,4.245,2.103,5.442,4.176c1.197,2.073,1.515,4.489,0.896,6.801
						C91.602,117.802,87.971,120.446,84.013,120.446z M84.009,107.822c-0.634,0-1.259,0.166-1.822,0.491
						c-0.847,0.489-1.452,1.278-1.705,2.222c-0.522,1.949,0.639,3.959,2.587,4.481c1.949,0.527,3.959-0.639,4.48-2.587
						c0.254-0.944,0.123-1.93-0.365-2.777c-0.489-0.846-1.277-1.451-2.221-1.704l-0.001-0.001
						C84.647,107.864,84.328,107.822,84.009,107.822z"/>
				</g>
			</g>
			<g>
				<g>
					
						<linearGradient id="SVGID_00000178192802383273320610000009218921491599729795_" gradientUnits="userSpaceOnUse" x1="91.2457" y1="158.9109" x2="165.2267" y2="38.8665">
						<stop  offset="0.0413" style="stop-color:#C285F9"/>
						<stop  offset="0.4741" style="stop-color:#97B3F9"/>
						<stop  offset="0.9556" style="stop-color:#64EBF9"/>
					</linearGradient>
					<path style="fill:url(#SVGID_00000178192802383273320610000009218921491599729795_);" d="M100.675,135.177
						c-1.172,0-2.243-0.781-2.561-1.966c-0.379-1.415,0.461-2.869,1.876-3.248l13.072-3.503c1.529-0.41,2.807-1.39,3.598-2.762
						l8.583-14.866c0.733-1.267,2.355-1.703,3.623-0.971c1.268,0.733,1.703,2.355,0.971,3.623l-8.583,14.866
						c-1.5,2.598-3.922,4.456-6.819,5.233l-13.072,3.503C101.133,135.148,100.901,135.177,100.675,135.177z"/>
				</g>
				<g>
					
						<linearGradient id="SVGID_00000133506716526333417510000016786366788237698945_" gradientUnits="userSpaceOnUse" x1="82.6045" y1="153.5854" x2="156.5852" y2="33.5414">
						<stop  offset="0.0413" style="stop-color:#C285F9"/>
						<stop  offset="0.4741" style="stop-color:#97B3F9"/>
						<stop  offset="0.9556" style="stop-color:#64EBF9"/>
					</linearGradient>
					<path style="fill:url(#SVGID_00000133506716526333417510000016786366788237698945_);" d="M94.582,143.121
						c-3.957,0-7.588-2.645-8.659-6.644c-0.62-2.313-0.302-4.728,0.896-6.801c1.197-2.073,3.13-3.556,5.442-4.176
						c2.313-0.618,4.728-0.301,6.801,0.896c2.073,1.197,3.556,3.13,4.177,5.442c1.279,4.774-1.565,9.697-6.339,10.977
						C96.126,143.023,95.348,143.121,94.582,143.121z M94.587,130.497c-0.318,0-0.638,0.042-0.953,0.126l-0.001,0.001
						c-0.944,0.253-1.733,0.858-2.222,1.704c-0.488,0.846-0.618,1.832-0.365,2.777c0.522,1.949,2.535,3.113,4.48,2.587
						c1.949-0.522,3.109-2.532,2.587-4.481c-0.253-0.944-0.858-1.733-1.705-2.222C95.846,130.664,95.22,130.497,94.587,130.497z
						 M92.947,128.062h0.014H92.947z"/>
				</g>
			</g>
			<g>
				<g>
					
						<linearGradient id="SVGID_00000059270120244764196590000000195249026827759516_" gradientUnits="userSpaceOnUse" x1="103.5902" y1="166.5186" x2="177.5711" y2="46.4743">
						<stop  offset="0.0413" style="stop-color:#C285F9"/>
						<stop  offset="0.4741" style="stop-color:#97B3F9"/>
						<stop  offset="0.9556" style="stop-color:#64EBF9"/>
					</linearGradient>
					<path style="fill:url(#SVGID_00000059270120244764196590000000195249026827759516_);" d="M119.529,146.702
						c-0.679,0-1.358-0.259-1.875-0.776c-1.036-1.036-1.036-2.715,0-3.751l9.569-9.569c1.119-1.12,1.735-2.608,1.735-4.191V111.25
						c0-1.465,1.187-2.652,2.652-2.652c1.465,0,2.652,1.187,2.652,2.652v17.165c0,3-1.168,5.821-3.289,7.941l-9.569,9.57
						C120.887,146.443,120.208,146.702,119.529,146.702z"/>
				</g>
				<g>
					
						<linearGradient id="SVGID_00000166635895550991110100000006810914385408813447_" gradientUnits="userSpaceOnUse" x1="103.8641" y1="166.6873" x2="177.8449" y2="46.6434">
						<stop  offset="0.0413" style="stop-color:#C285F9"/>
						<stop  offset="0.4741" style="stop-color:#97B3F9"/>
						<stop  offset="0.9556" style="stop-color:#64EBF9"/>
					</linearGradient>
					<path style="fill:url(#SVGID_00000166635895550991110100000006810914385408813447_);" d="M115.066,157.471
						c-2.295,0-4.59-0.874-6.337-2.621c-1.693-1.692-2.625-3.943-2.625-6.337c0-2.394,0.932-4.645,2.625-6.337
						c3.494-3.495,9.182-3.494,12.675,0c3.494,3.495,3.494,9.181,0,12.674C119.657,156.598,117.361,157.471,115.066,157.471z
						 M115.067,144.856c-0.937,0-1.874,0.356-2.587,1.07c-0.691,0.69-1.072,1.609-1.072,2.587s0.38,1.896,1.071,2.587
						c1.427,1.428,3.748,1.428,5.175,0c1.426-1.426,1.426-3.747-0.001-5.174C116.94,145.212,116.003,144.856,115.067,144.856z"/>
				</g>
			</g>
			<g>
				<g>
					
						<linearGradient id="SVGID_00000120534658311860763300000018144149261992788393_" gradientUnits="userSpaceOnUse" x1="111.5197" y1="171.4053" x2="185.5005" y2="51.3612">
						<stop  offset="0.0413" style="stop-color:#C285F9"/>
						<stop  offset="0.4741" style="stop-color:#97B3F9"/>
						<stop  offset="0.9556" style="stop-color:#64EBF9"/>
					</linearGradient>
					<path style="fill:url(#SVGID_00000120534658311860763300000018144149261992788393_);" d="M141.62,147.258
						c-0.227,0-0.458-0.029-0.688-0.091c-1.415-0.38-2.255-1.833-1.876-3.248l3.503-13.072c0.41-1.529,0.2-3.126-0.592-4.498
						l-8.583-14.865c-0.732-1.268-0.298-2.891,0.971-3.623c1.27-0.732,2.891-0.296,3.623,0.971l8.583,14.866
						c1.5,2.598,1.898,5.625,1.122,8.522l-3.503,13.072C143.863,146.477,142.791,147.258,141.62,147.258z"/>
				</g>
				<g>
					
						<linearGradient id="SVGID_00000059306190564053063500000004839015227363872674_" gradientUnits="userSpaceOnUse" x1="122.9045" y1="178.4215" x2="196.8856" y2="58.3769">
						<stop  offset="0.0413" style="stop-color:#C285F9"/>
						<stop  offset="0.4741" style="stop-color:#97B3F9"/>
						<stop  offset="0.9556" style="stop-color:#64EBF9"/>
					</linearGradient>
					<path style="fill:url(#SVGID_00000059306190564053063500000004839015227363872674_);" d="M140.001,159.669
						c-0.779,0-1.563-0.103-2.335-0.309c-4.773-1.279-7.617-6.203-6.338-10.977l0,0c1.28-4.774,6.205-7.615,10.977-6.339
						c2.313,0.62,4.245,2.103,5.442,4.177c1.198,2.073,1.515,4.489,0.895,6.801c-0.619,2.312-2.102,4.245-4.175,5.442
						C143.086,159.261,141.553,159.669,140.001,159.669z M136.452,149.755c-0.522,1.949,0.638,3.959,2.587,4.48
						c0.944,0.252,1.929,0.123,2.777-0.365c0.846-0.489,1.451-1.278,1.704-2.222c0.253-0.944,0.123-1.93-0.365-2.776
						c-0.489-0.846-1.278-1.452-2.222-1.705C138.984,146.644,136.974,147.807,136.452,149.755L136.452,149.755z"/>
				</g>
			</g>
			<g>
				<g>
					
						<linearGradient id="SVGID_00000143589368766354194470000008082054258140528534_" gradientUnits="userSpaceOnUse" x1="116.6082" y1="174.541" x2="190.5888" y2="54.4972">
						<stop  offset="0.0413" style="stop-color:#C285F9"/>
						<stop  offset="0.4741" style="stop-color:#97B3F9"/>
						<stop  offset="0.9556" style="stop-color:#64EBF9"/>
					</linearGradient>
					<path style="fill:url(#SVGID_00000143589368766354194470000008082054258140528534_);" d="M161.026,136.695
						c-1.172,0-2.243-0.781-2.561-1.966l-3.503-13.072c-0.41-1.53-1.39-2.807-2.761-3.599l-14.866-8.582
						c-1.268-0.733-1.702-2.354-0.971-3.623c0.733-1.268,2.356-1.702,3.623-0.971l14.866,8.582c2.598,1.499,4.456,3.922,5.232,6.82
						l3.503,13.072c0.379,1.415-0.461,2.869-1.876,3.248C161.484,136.665,161.253,136.695,161.026,136.695z"/>
				</g>
				<g>
					
						<linearGradient id="SVGID_00000102517212400807628020000011882623545758961292_" gradientUnits="userSpaceOnUse" x1="134.6203" y1="185.6416" x2="208.6011" y2="65.5974">
						<stop  offset="0.0413" style="stop-color:#C285F9"/>
						<stop  offset="0.4741" style="stop-color:#97B3F9"/>
						<stop  offset="0.9556" style="stop-color:#64EBF9"/>
					</linearGradient>
					<path style="fill:url(#SVGID_00000102517212400807628020000011882623545758961292_);" d="M162.646,149.105
						c-1.553,0-3.086-0.408-4.466-1.205c-2.073-1.197-3.556-3.13-4.176-5.442l-0.001-0.001c-1.279-4.773,1.564-9.697,6.337-10.977
						c4.779-1.286,9.699,1.564,10.978,6.337c0.619,2.313,0.302,4.728-0.896,6.801c-1.197,2.073-3.13,3.556-5.442,4.176
						C164.208,149.002,163.424,149.105,162.646,149.105z M159.127,141.084c0.522,1.949,2.529,3.111,4.48,2.588
						c0.945-0.254,1.734-0.859,2.223-1.705c0.488-0.846,0.618-1.832,0.365-2.777c-0.521-1.949-2.535-3.109-4.481-2.587
						C159.766,137.126,158.605,139.136,159.127,141.084L159.127,141.084z"/>
				</g>
			</g>
			<g>
				<g>
					
						<linearGradient id="SVGID_00000152972121113041371050000005205072223811131835_" gradientUnits="userSpaceOnUse" x1="116.0607" y1="174.2039" x2="190.0415" y2="54.1597">
						<stop  offset="0.0413" style="stop-color:#C285F9"/>
						<stop  offset="0.4741" style="stop-color:#97B3F9"/>
						<stop  offset="0.9556" style="stop-color:#64EBF9"/>
					</linearGradient>
					<path style="fill:url(#SVGID_00000152972121113041371050000005205072223811131835_);" d="M172.554,117.841
						c-0.679,0-1.358-0.259-1.875-0.777l-9.569-9.569c-1.12-1.119-2.608-1.736-4.191-1.736h-17.166
						c-1.465,0-2.652-1.187-2.652-2.652c0-1.465,1.187-2.652,2.652-2.652h17.166c2.999,0,5.819,1.168,7.941,3.289l9.569,9.569
						c1.036,1.036,1.036,2.715,0,3.751C173.912,117.582,173.233,117.841,172.554,117.841z"/>
				</g>
				<g>
					
						<linearGradient id="SVGID_00000008112088791415530750000001801261668494187196_" gradientUnits="userSpaceOnUse" x1="135.8722" y1="186.4133" x2="209.8531" y2="66.3691">
						<stop  offset="0.0413" style="stop-color:#C285F9"/>
						<stop  offset="0.4741" style="stop-color:#97B3F9"/>
						<stop  offset="0.9556" style="stop-color:#64EBF9"/>
					</linearGradient>
					<path style="fill:url(#SVGID_00000008112088791415530750000001801261668494187196_);" d="M177.016,128.61
						c-2.295,0-4.59-0.874-6.337-2.621c-3.495-3.494-3.495-9.18,0-12.675c3.494-3.495,9.181-3.495,12.674,0
						c3.495,3.494,3.495,9.18,0,12.675C181.607,127.736,179.311,128.61,177.016,128.61z M177.016,115.995
						c-0.937,0-1.874,0.356-2.587,1.07c-1.427,1.426-1.427,3.747,0,5.173c1.426,1.427,3.747,1.427,5.173,0
						c1.427-1.426,1.427-3.747,0-5.173C178.89,116.351,177.953,115.995,177.016,115.995z"/>
				</g>
			</g>
			<g>
				<g>
					
						<linearGradient id="SVGID_00000000203915058321174560000006889860801808071592_" gradientUnits="userSpaceOnUse" x1="110.0245" y1="170.4837" x2="184.0053" y2="50.4396">
						<stop  offset="0.0413" style="stop-color:#C285F9"/>
						<stop  offset="0.4741" style="stop-color:#97B3F9"/>
						<stop  offset="0.9556" style="stop-color:#64EBF9"/>
					</linearGradient>
					<path style="fill:url(#SVGID_00000000203915058321174560000006889860801808071592_);" d="M138.665,101.688
						c-0.917,0-1.808-0.476-2.3-1.326c-0.732-1.269-0.298-2.891,0.971-3.623l14.866-8.582c2.599-1.5,5.626-1.899,8.522-1.123
						l13.072,3.503c1.415,0.38,2.255,1.834,1.876,3.248c-0.379,1.415-1.835,2.255-3.248,1.876l-13.072-3.503
						c-1.529-0.41-3.126-0.199-4.497,0.592l-14.866,8.582C139.571,101.574,139.115,101.688,138.665,101.688z"/>
				</g>
				<g>
					
						<linearGradient id="SVGID_00000165955238217255661870000007881119526492780425_" gradientUnits="userSpaceOnUse" x1="126.3302" y1="180.5326" x2="200.3109" y2="60.4886">
						<stop  offset="0.0413" style="stop-color:#C285F9"/>
						<stop  offset="0.4741" style="stop-color:#97B3F9"/>
						<stop  offset="0.9556" style="stop-color:#64EBF9"/>
					</linearGradient>
					<path style="fill:url(#SVGID_00000165955238217255661870000007881119526492780425_);" d="M179.22,103.699
						c-0.779,0-1.563-0.103-2.335-0.31l0,0c-4.773-1.279-7.617-6.203-6.338-10.977c1.279-4.772,6.204-7.613,10.977-6.338
						c2.313,0.62,4.245,2.103,5.442,4.177c1.197,2.073,1.515,4.489,0.895,6.801c-0.619,2.312-2.102,4.245-4.175,5.442
						C182.306,103.292,180.773,103.699,179.22,103.699z M179.206,91.073c-1.615,0-3.097,1.08-3.535,2.713
						c-0.522,1.948,0.638,3.959,2.587,4.48l0,0c0.945,0.252,1.93,0.123,2.777-0.365c0.846-0.489,1.451-1.278,1.704-2.222
						c0.523-1.949-0.638-3.959-2.587-4.481C179.836,91.113,179.519,91.073,179.206,91.073z"/>
				</g>
			</g>
			<g>
				<g>
					
						<linearGradient id="SVGID_00000119076025000262949530000017854785800224630203_" gradientUnits="userSpaceOnUse" x1="99.9054" y1="164.2475" x2="173.8862" y2="44.2034">
						<stop  offset="0.0413" style="stop-color:#C285F9"/>
						<stop  offset="0.4741" style="stop-color:#97B3F9"/>
						<stop  offset="0.9556" style="stop-color:#64EBF9"/>
					</linearGradient>
					<path style="fill:url(#SVGID_00000119076025000262949530000017854785800224630203_);" d="M135.679,98.709
						c-0.45,0-0.906-0.115-1.324-0.356c-1.268-0.733-1.703-2.355-0.971-3.623l8.583-14.866c1.5-2.598,3.922-4.457,6.82-5.233
						l13.072-3.503c1.412-0.38,2.869,0.46,3.248,1.876c0.379,1.415-0.461,2.869-1.876,3.248l-13.072,3.503
						c-1.529,0.41-2.807,1.39-3.599,2.762l-8.583,14.866C137.487,98.233,136.595,98.709,135.679,98.709z"/>
				</g>
				<g>
					
						<linearGradient id="SVGID_00000132788351345871501740000015166255131840905633_" gradientUnits="userSpaceOnUse" x1="108.543" y1="169.5708" x2="182.5238" y2="49.5268">
						<stop  offset="0.0413" style="stop-color:#C285F9"/>
						<stop  offset="0.4741" style="stop-color:#97B3F9"/>
						<stop  offset="0.9556" style="stop-color:#64EBF9"/>
					</linearGradient>
					<path style="fill:url(#SVGID_00000132788351345871501740000015166255131840905633_);" d="M168.626,81.024
						c-1.553,0-3.086-0.408-4.466-1.205c-2.073-1.197-3.556-3.13-4.176-5.442c-0.619-2.312-0.301-4.727,0.896-6.801
						c1.197-2.073,3.13-3.556,5.442-4.176c4.774-1.283,9.697,1.564,10.977,6.337c1.279,4.775-1.564,9.699-6.337,10.978
						C170.189,80.921,169.405,81.024,168.626,81.024z M168.64,68.398c-0.313,0-0.631,0.041-0.946,0.126
						c-1.949,0.522-3.109,2.532-2.587,4.48c0.254,0.945,0.859,1.734,1.705,2.223c0.846,0.487,1.831,0.618,2.777,0.365l0,0
						c1.949-0.521,3.109-2.532,2.587-4.481C171.737,69.477,170.256,68.398,168.64,68.398z"/>
				</g>
			</g>
			<g>
				
					<linearGradient id="SVGID_00000062871183007494594750000014832417681068478103_" gradientUnits="userSpaceOnUse" x1="95.5756" y1="161.5793" x2="169.5564" y2="41.5352">
					<stop  offset="0.0413" style="stop-color:#C285F9"/>
					<stop  offset="0.4741" style="stop-color:#97B3F9"/>
					<stop  offset="0.9556" style="stop-color:#64EBF9"/>
				</linearGradient>
				<path style="fill:url(#SVGID_00000062871183007494594750000014832417681068478103_);" d="M131.61,113.897
					c-2.764,0-5.528-1.052-7.632-3.157h-0.001c-4.207-4.209-4.207-11.057,0-15.265c4.21-4.21,11.057-4.209,15.266,0
					c4.209,4.209,4.209,11.056,0,15.265C137.139,112.844,134.375,113.897,131.61,113.897z M127.729,106.99
					c2.141,2.141,5.623,2.14,7.764,0c2.14-2.141,2.14-5.624,0-7.765c-2.141-2.14-5.623-2.14-7.764,0
					C125.589,101.366,125.589,104.849,127.729,106.99L127.729,106.99z"/>
			</g>
		</g>
		<g>
			<rect x="59.705" y="177.286" style="fill:none;" width="143.814" height="21.372"/>
			<text transform="matrix(1 0 0 1 65.2783 193.8008)"><tspan x="0" y="0" style="fill:#494949;stroke:#494949;stroke-width:0.5;stroke-linejoin:round;stroke-miterlimit:10; font-family:'Quicksand-Bold'; font-size:23.5939px;">TECH</tspan><tspan x="61.839" y="0" style="fill:#494949; font-family:'Quicksand-Regular'; font-size:23.5939px;">LOGO</tspan></text>
			<rect x="83.359" y="200.598" style="fill:none;" width="96.506" height="10.686"/>
			
				<text transform="matrix(1 0 0 1 88.8247 208.856)" style="fill:#494949; font-family:'Quicksand-Regular'; font-size:11.7969px;">YOUR SLOGAN</text>
		</g>
	</g>
	<g>
		<g>
			<g>
				<g>
					
						<linearGradient id="SVGID_00000094586075375149992070000017941666774132691849_" gradientUnits="userSpaceOnUse" x1="102.744" y1="382.7444" x2="194.871" y2="280.8462">
						<stop  offset="0" style="stop-color:#F95C41"/>
						<stop  offset="1" style="stop-color:#FFE780"/>
					</linearGradient>
					<path style="fill:url(#SVGID_00000094586075375149992070000017941666774132691849_);" d="M163.878,324.283
						c-5.049,0-9.158-4.108-9.158-9.158c0-5.05,4.108-9.158,9.158-9.158c5.051,0,9.159,4.108,9.159,9.158
						C173.037,320.175,168.929,324.283,163.878,324.283z M163.878,311.272c-2.124,0-3.852,1.729-3.852,3.854
						c0,2.125,1.728,3.854,3.852,3.854c2.125,0,3.854-1.728,3.854-3.854C167.732,313,166.003,311.272,163.878,311.272z"/>
				</g>
				<g>
					
						<linearGradient id="SVGID_00000169537515988912093570000011854502584242111406_" gradientUnits="userSpaceOnUse" x1="92.0769" y1="373.1001" x2="184.2038" y2="271.2021">
						<stop  offset="0" style="stop-color:#F95C41"/>
						<stop  offset="1" style="stop-color:#FFE780"/>
					</linearGradient>
					<path style="fill:url(#SVGID_00000169537515988912093570000011854502584242111406_);" d="M157.373,317.777h-25.762
						c-1.465,0-2.653-1.187-2.653-2.652c0-1.465,1.187-2.652,2.653-2.652h25.762c1.465,0,2.653,1.187,2.653,2.652
						C160.026,316.59,158.839,317.777,157.373,317.777z"/>
				</g>
				<g>
					<g>
						
							<linearGradient id="SVGID_00000132809750868032955980000005846205264109675693_" gradientUnits="userSpaceOnUse" x1="102.6321" y1="382.6428" x2="194.7586" y2="280.7451">
							<stop  offset="0" style="stop-color:#F95C41"/>
							<stop  offset="1" style="stop-color:#FFE780"/>
						</linearGradient>
						<path style="fill:url(#SVGID_00000132809750868032955980000005846205264109675693_);" d="M172.399,334.443h-12.436
							c-3.162,0-6.136-1.231-8.371-3.467l-13.771-13.77c-1.036-1.036-1.036-2.715,0-3.751c1.036-1.036,2.715-1.036,3.751,0
							l13.771,13.771c1.234,1.234,2.875,1.913,4.62,1.913h12.436c1.465,0,2.653,1.187,2.653,2.652
							C175.052,333.256,173.865,334.443,172.399,334.443z"/>
					</g>
					<g>
						
							<linearGradient id="SVGID_00000065050197311225708540000016124562950871316114_" gradientUnits="userSpaceOnUse" x1="119.3026" y1="397.7151" x2="211.4295" y2="295.817">
							<stop  offset="0" style="stop-color:#F95C41"/>
							<stop  offset="1" style="stop-color:#FFE780"/>
						</linearGradient>
						<path style="fill:url(#SVGID_00000065050197311225708540000016124562950871316114_);" d="M178.904,340.949
							c-5.049,0-9.158-4.108-9.158-9.158s4.108-9.158,9.158-9.158c5.051,0,9.159,4.108,9.159,9.158S183.955,340.949,178.904,340.949
							z M178.904,327.938c-2.124,0-3.852,1.728-3.852,3.854c0,2.125,1.729,3.854,3.852,3.854c2.125,0,3.854-1.728,3.854-3.854
							C182.758,329.666,181.029,327.938,178.904,327.938z"/>
					</g>
				</g>
				<g>
					<g>
						
							<linearGradient id="SVGID_00000150077786940077429390000001067391654408009867_" gradientUnits="userSpaceOnUse" x1="94.4429" y1="375.2394" x2="186.5698" y2="273.3414">
							<stop  offset="0" style="stop-color:#F95C41"/>
							<stop  offset="1" style="stop-color:#FFE780"/>
						</linearGradient>
						<path style="fill:url(#SVGID_00000150077786940077429390000001067391654408009867_);" d="M139.697,317.983
							c-0.679,0-1.358-0.259-1.876-0.776c-1.036-1.036-1.036-2.715,0-3.751l13.771-13.771c2.237-2.236,5.21-3.467,8.371-3.467
							h12.436c1.465,0,2.653,1.187,2.653,2.652s-1.187,2.652-2.653,2.652h-12.436c-1.745,0-3.386,0.68-4.621,1.914l-13.769,13.771
							C141.055,317.724,140.376,317.983,139.697,317.983z"/>
					</g>
					<g>
						
							<linearGradient id="SVGID_00000169526913591596293100000009156406864796723127_" gradientUnits="userSpaceOnUse" x1="102.925" y1="382.908" x2="195.0518" y2="281.01">
							<stop  offset="0" style="stop-color:#F95C41"/>
							<stop  offset="1" style="stop-color:#FFE780"/>
						</linearGradient>
						<path style="fill:url(#SVGID_00000169526913591596293100000009156406864796723127_);" d="M178.904,308.027
							c-5.049,0-9.158-4.108-9.158-9.158c0-5.049,4.108-9.157,9.158-9.157c5.051,0,9.159,4.108,9.159,9.157
							C188.063,303.919,183.955,308.027,178.904,308.027z M178.904,295.016c-2.124,0-3.852,1.729-3.852,3.853
							c0,2.125,1.729,3.854,3.852,3.854c2.125,0,3.854-1.729,3.854-3.854C182.758,296.745,181.029,295.016,178.904,295.016z"/>
					</g>
				</g>
			</g>
			<g>
				<g>
					
						<linearGradient id="SVGID_00000047062328807437309190000006792118903455069838_" gradientUnits="userSpaceOnUse" x1="68.9377" y1="352.1798" x2="161.0646" y2="250.2817">
						<stop  offset="0" style="stop-color:#F95C41"/>
						<stop  offset="1" style="stop-color:#FFE780"/>
					</linearGradient>
					<path style="fill:url(#SVGID_00000047062328807437309190000006792118903455069838_);" d="M131.611,292.016
						c-5.049,0-9.158-4.108-9.158-9.158s4.109-9.158,9.158-9.158c5.05,0,9.159,4.108,9.159,9.158S136.662,292.016,131.611,292.016z
						 M131.611,279.005c-2.124,0-3.852,1.729-3.852,3.854c0,2.125,1.729,3.854,3.852,3.854c2.125,0,3.854-1.728,3.854-3.854
						C135.465,280.733,133.736,279.005,131.611,279.005z"/>
				</g>
				<g>
					
						<linearGradient id="SVGID_00000158022357215720368680000006676034288913920648_" gradientUnits="userSpaceOnUse" x1="78.5814" y1="360.899" x2="170.7086" y2="259.0006">
						<stop  offset="0" style="stop-color:#F95C41"/>
						<stop  offset="1" style="stop-color:#FFE780"/>
					</linearGradient>
					<path style="fill:url(#SVGID_00000158022357215720368680000006676034288913920648_);" d="M131.611,317.777
						c-1.465,0-2.653-1.187-2.653-2.652v-25.761c0-1.465,1.187-2.652,2.653-2.652c1.465,0,2.653,1.187,2.653,2.652v25.761
						C134.264,316.59,133.077,317.777,131.611,317.777z"/>
				</g>
				<g>
					<g>
						
							<linearGradient id="SVGID_00000011741036475145969560000012229246685040754310_" gradientUnits="userSpaceOnUse" x1="77.8417" y1="360.2298" x2="169.9687" y2="258.3317">
							<stop  offset="0" style="stop-color:#F95C41"/>
							<stop  offset="1" style="stop-color:#FFE780"/>
						</linearGradient>
						<path style="fill:url(#SVGID_00000011741036475145969560000012229246685040754310_);" d="M131.817,309.691
							c-0.679,0-1.358-0.259-1.876-0.776c-1.036-1.036-1.036-2.715,0-3.751l13.77-13.771c1.234-1.234,1.913-2.874,1.913-4.619
							v-12.436c0-1.465,1.187-2.652,2.653-2.652s2.653,1.187,2.653,2.652v12.436c0,3.163-1.232,6.135-3.468,8.37l-13.769,13.771
							C133.175,309.432,132.496,309.691,131.817,309.691z"/>
					</g>
					<g>
						
							<linearGradient id="SVGID_00000102512338294817631060000011686525376648183996_" gradientUnits="userSpaceOnUse" x1="70.6328" y1="353.7125" x2="162.7598" y2="251.8143">
							<stop  offset="0" style="stop-color:#F95C41"/>
							<stop  offset="1" style="stop-color:#FFE780"/>
						</linearGradient>
						<path style="fill:url(#SVGID_00000102512338294817631060000011686525376648183996_);" d="M148.277,276.99
							c-5.049,0-9.158-4.108-9.158-9.158c0-5.05,4.108-9.158,9.158-9.158c5.051,0,9.159,4.108,9.159,9.158
							C157.436,272.882,153.327,276.99,148.277,276.99z M148.277,263.979c-2.124,0-3.852,1.729-3.852,3.854
							c0,2.125,1.728,3.854,3.852,3.854c2.125,0,3.854-1.728,3.854-3.854C152.131,265.707,150.402,263.979,148.277,263.979z"/>
					</g>
				</g>
				<g>
					<g>
						
							<linearGradient id="SVGID_00000052095667871633146320000013659878331762581146_" gradientUnits="userSpaceOnUse" x1="68.4171" y1="351.7092" x2="160.5439" y2="249.8111">
							<stop  offset="0" style="stop-color:#F95C41"/>
							<stop  offset="1" style="stop-color:#FFE780"/>
						</linearGradient>
						<path style="fill:url(#SVGID_00000052095667871633146320000013659878331762581146_);" d="M131.817,309.691
							c-0.679,0-1.358-0.259-1.876-0.776l-13.772-13.771c-2.236-2.237-3.466-5.209-3.466-8.37v-12.436
							c0-1.465,1.187-2.652,2.653-2.652c1.465,0,2.653,1.187,2.653,2.652v12.436c0,1.745,0.679,3.385,1.912,4.619l13.772,13.771
							c1.036,1.036,1.036,2.715,0,3.751C133.175,309.432,132.496,309.691,131.817,309.691z"/>
					</g>
					<g>
						
							<linearGradient id="SVGID_00000130635014704953568390000009286814620456024216_" gradientUnits="userSpaceOnUse" x1="52.5183" y1="337.3351" x2="144.6453" y2="235.4369">
							<stop  offset="0" style="stop-color:#F95C41"/>
							<stop  offset="1" style="stop-color:#FFE780"/>
						</linearGradient>
						<path style="fill:url(#SVGID_00000130635014704953568390000009286814620456024216_);" d="M115.356,276.99
							c-5.049,0-9.158-4.108-9.158-9.158c0-5.05,4.108-9.158,9.158-9.158c5.05,0,9.159,4.108,9.159,9.158
							C124.515,272.882,120.406,276.99,115.356,276.99z M115.356,263.979c-2.124,0-3.852,1.729-3.852,3.854
							c0,2.125,1.729,3.854,3.852,3.854c2.125,0,3.854-1.728,3.854-3.854C119.209,265.707,117.481,263.979,115.356,263.979z"/>
					</g>
				</g>
			</g>
			<g>
				<g>
					
						<linearGradient id="SVGID_00000140733872534225039470000013255794858970630807_" gradientUnits="userSpaceOnUse" x1="67.2353" y1="350.6405" x2="159.3622" y2="248.7424">
						<stop  offset="0" style="stop-color:#F95C41"/>
						<stop  offset="1" style="stop-color:#FFE780"/>
					</linearGradient>
					<path style="fill:url(#SVGID_00000140733872534225039470000013255794858970630807_);" d="M99.344,324.283
						c-5.049,0-9.158-4.108-9.158-9.158c0-5.05,4.109-9.158,9.158-9.158c5.05,0,9.159,4.108,9.159,9.158
						C108.503,320.175,104.395,324.283,99.344,324.283z M99.344,311.272c-2.124,0-3.852,1.729-3.852,3.854
						c0,2.125,1.728,3.854,3.852,3.854c2.125,0,3.854-1.728,3.854-3.854C103.198,313,101.469,311.272,99.344,311.272z"/>
				</g>
				<g>
					
						<linearGradient id="SVGID_00000181085770051910864860000010453068531244590478_" gradientUnits="userSpaceOnUse" x1="77.9021" y1="360.2845" x2="170.0292" y2="258.3863">
						<stop  offset="0" style="stop-color:#F95C41"/>
						<stop  offset="1" style="stop-color:#FFE780"/>
					</linearGradient>
					<path style="fill:url(#SVGID_00000181085770051910864860000010453068531244590478_);" d="M131.611,317.777H105.85
						c-1.465,0-2.653-1.187-2.653-2.652c0-1.465,1.187-2.652,2.653-2.652h25.761c1.465,0,2.653,1.187,2.653,2.652
						C134.264,316.59,133.077,317.777,131.611,317.777z"/>
				</g>
				<g>
					<g>
						
							<linearGradient id="SVGID_00000127730032057314766520000015828041007477277865_" gradientUnits="userSpaceOnUse" x1="67.3468" y1="350.7412" x2="159.4734" y2="248.8436">
							<stop  offset="0" style="stop-color:#F95C41"/>
							<stop  offset="1" style="stop-color:#FFE780"/>
						</linearGradient>
						<path style="fill:url(#SVGID_00000127730032057314766520000015828041007477277865_);" d="M123.525,317.572
							c-0.679,0-1.358-0.259-1.876-0.777l-13.771-13.77c-1.234-1.234-2.875-1.913-4.618-1.913H90.824
							c-1.465,0-2.653-1.187-2.653-2.652c0-1.465,1.187-2.652,2.653-2.652h12.436c3.161,0,6.133,1.231,8.368,3.467l13.772,13.771
							c1.036,1.035,1.036,2.715,0,3.75C124.883,317.313,124.204,317.572,123.525,317.572z"/>
					</g>
					<g>
						
							<linearGradient id="SVGID_00000129896209283675247000000014284707891538977414_" gradientUnits="userSpaceOnUse" x1="50.6763" y1="335.6694" x2="142.8031" y2="233.7714">
							<stop  offset="0" style="stop-color:#F95C41"/>
							<stop  offset="1" style="stop-color:#FFE780"/>
						</linearGradient>
						<path style="fill:url(#SVGID_00000129896209283675247000000014284707891538977414_);" d="M84.318,307.617
							c-5.05,0-9.158-4.108-9.158-9.158c0-5.05,4.108-9.158,9.158-9.158c5.05,0,9.159,4.108,9.159,9.158
							C93.477,303.509,89.369,307.617,84.318,307.617z M84.318,294.605c-2.125,0-3.854,1.729-3.854,3.854
							c0,2.125,1.729,3.854,3.854,3.854c2.125,0,3.854-1.728,3.854-3.854C88.172,296.334,86.443,294.605,84.318,294.605z"/>
					</g>
				</g>
				<g>
					<g>
						
							<linearGradient id="SVGID_00000029747848194646135780000012895955178724631481_" gradientUnits="userSpaceOnUse" x1="75.5356" y1="358.145" x2="167.6626" y2="256.2468">
							<stop  offset="0" style="stop-color:#F95C41"/>
							<stop  offset="1" style="stop-color:#FFE780"/>
						</linearGradient>
						<path style="fill:url(#SVGID_00000029747848194646135780000012895955178724631481_);" d="M103.26,334.033H90.824
							c-1.465,0-2.653-1.187-2.653-2.652c0-1.465,1.187-2.652,2.653-2.652h12.436c1.743,0,3.385-0.68,4.62-1.914l13.769-13.771
							c1.036-1.036,2.715-1.035,3.751-0.001c1.036,1.036,1.036,2.715,0,3.751l-13.771,13.771
							C109.393,332.802,106.422,334.033,103.26,334.033z"/>
					</g>
					<g>
						
							<linearGradient id="SVGID_00000083780643570782874670000006309823380936679299_" gradientUnits="userSpaceOnUse" x1="67.054" y1="350.4767" x2="159.1808" y2="248.5788">
							<stop  offset="0" style="stop-color:#F95C41"/>
							<stop  offset="1" style="stop-color:#FFE780"/>
						</linearGradient>
						<path style="fill:url(#SVGID_00000083780643570782874670000006309823380936679299_);" d="M84.318,340.539
							c-5.05,0-9.158-4.108-9.158-9.158c0-5.05,4.108-9.158,9.158-9.158c5.05,0,9.159,4.108,9.159,9.158
							C93.477,336.431,89.369,340.539,84.318,340.539z M84.318,327.527c-2.125,0-3.854,1.728-3.854,3.854
							c0,2.125,1.729,3.854,3.854,3.854c2.125,0,3.854-1.728,3.854-3.854C88.172,329.256,86.443,327.527,84.318,327.527z"/>
					</g>
				</g>
			</g>
			<g>
				<g>
					
						<linearGradient id="SVGID_00000101809333651908341220000015822928735367614376_" gradientUnits="userSpaceOnUse" x1="101.0413" y1="381.2047" x2="193.1681" y2="279.3067">
						<stop  offset="0" style="stop-color:#F95C41"/>
						<stop  offset="1" style="stop-color:#FFE780"/>
					</linearGradient>
					<path style="fill:url(#SVGID_00000101809333651908341220000015822928735367614376_);" d="M131.611,356.549
						c-5.049,0-9.158-4.108-9.158-9.158c0-5.05,4.109-9.158,9.158-9.158c5.05,0,9.159,4.108,9.159,9.158
						C140.77,352.442,136.662,356.549,131.611,356.549z M131.611,343.538c-2.124,0-3.852,1.728-3.852,3.854
						c0,2.125,1.729,3.854,3.852,3.854c2.125,0,3.854-1.728,3.854-3.854C135.465,345.267,133.736,343.538,131.611,343.538z"/>
				</g>
				<g>
					
						<linearGradient id="SVGID_00000085248897829439599500000006234254297078862738_" gradientUnits="userSpaceOnUse" x1="91.3969" y1="372.4853" x2="183.5237" y2="270.5874">
						<stop  offset="0" style="stop-color:#F95C41"/>
						<stop  offset="1" style="stop-color:#FFE780"/>
					</linearGradient>
					<path style="fill:url(#SVGID_00000085248897829439599500000006234254297078862738_);" d="M131.611,343.538
						c-1.465,0-2.653-1.187-2.653-2.652v-25.761c0-1.465,1.187-2.652,2.653-2.652c1.465,0,2.653,1.187,2.653,2.652v25.761
						C134.264,342.351,133.077,343.538,131.611,343.538z"/>
				</g>
				<g>
					<g>
						
							<linearGradient id="SVGID_00000163779467468750883400000009329354299085156004_" gradientUnits="userSpaceOnUse" x1="92.1366" y1="373.1541" x2="184.2636" y2="271.256">
							<stop  offset="0" style="stop-color:#F95C41"/>
							<stop  offset="1" style="stop-color:#FFE780"/>
						</linearGradient>
						<path style="fill:url(#SVGID_00000163779467468750883400000009329354299085156004_);" d="M114.945,358.565
							c-1.465,0-2.653-1.187-2.653-2.652v-12.437c0-3.161,1.231-6.133,3.466-8.369l13.772-13.772
							c1.036-1.035,2.715-1.035,3.751,0.001c1.036,1.035,1.036,2.715,0,3.751l-13.772,13.771c-1.216,1.215-1.912,2.9-1.912,4.618
							v12.437C117.598,357.378,116.411,358.565,114.945,358.565z"/>
					</g>
					<g>
						
							<linearGradient id="SVGID_00000070820257099453729420000013672592528779835282_" gradientUnits="userSpaceOnUse" x1="99.3456" y1="379.6718" x2="191.4723" y2="277.774">
							<stop  offset="0" style="stop-color:#F95C41"/>
							<stop  offset="1" style="stop-color:#FFE780"/>
						</linearGradient>
						<path style="fill:url(#SVGID_00000070820257099453729420000013672592528779835282_);" d="M114.945,371.575
							c-5.05,0-9.159-4.108-9.159-9.157c0-5.05,4.108-9.158,9.159-9.158c5.049,0,9.158,4.108,9.158,9.158
							C124.103,367.468,119.994,371.575,114.945,371.575z M114.945,358.565c-2.125,0-3.854,1.728-3.854,3.854
							c0,2.124,1.729,3.853,3.854,3.853c2.124,0,3.852-1.728,3.852-3.853C118.798,360.293,117.069,358.565,114.945,358.565z"/>
					</g>
				</g>
				<g>
					<g>
						
							<linearGradient id="SVGID_00000117660271849992264490000015632055728720777878_" gradientUnits="userSpaceOnUse" x1="101.5614" y1="381.6754" x2="193.6884" y2="279.7772">
							<stop  offset="0" style="stop-color:#F95C41"/>
							<stop  offset="1" style="stop-color:#FFE780"/>
						</linearGradient>
						<path style="fill:url(#SVGID_00000117660271849992264490000015632055728720777878_);" d="M147.867,358.565
							c-1.465,0-2.653-1.187-2.653-2.652v-12.437c0-1.719-0.697-3.403-1.913-4.619l-13.77-13.771c-1.036-1.035-1.036-2.715,0-3.751
							c1.036-1.035,2.715-1.035,3.751,0.001l13.77,13.771c2.236,2.236,3.467,5.208,3.467,8.369v12.437
							C150.519,357.378,149.332,358.565,147.867,358.565z"/>
					</g>
					<g>
						
							<linearGradient id="SVGID_00000129898789124592710340000012893465926135028101_" gradientUnits="userSpaceOnUse" x1="117.4607" y1="396.0498" x2="209.5875" y2="294.1518">
							<stop  offset="0" style="stop-color:#F95C41"/>
							<stop  offset="1" style="stop-color:#FFE780"/>
						</linearGradient>
						<path style="fill:url(#SVGID_00000129898789124592710340000012893465926135028101_);" d="M147.867,371.575
							c-5.049,0-9.158-4.108-9.158-9.157c0-5.05,4.109-9.158,9.158-9.158c5.05,0,9.159,4.108,9.159,9.158
							C157.026,367.468,152.917,371.575,147.867,371.575z M147.867,358.565c-2.124,0-3.852,1.728-3.852,3.854
							c0,2.124,1.729,3.853,3.852,3.853c2.125,0,3.854-1.728,3.854-3.853C151.72,360.293,149.992,358.565,147.867,358.565z"/>
					</g>
				</g>
			</g>
		</g>
		<g>
			<rect x="59.705" y="388.936" style="fill:none;" width="143.814" height="21.372"/>
			<text transform="matrix(1 0 0 1 65.2783 405.4512)"><tspan x="0" y="0" style="fill:#494949;stroke:#494949;stroke-width:0.5;stroke-linejoin:round;stroke-miterlimit:10; font-family:'Quicksand-Bold'; font-size:23.5939px;">TECH</tspan><tspan x="61.839" y="0" style="fill:#494949; font-family:'Quicksand-Regular'; font-size:23.5939px;">LOGO</tspan></text>
			<rect x="83.359" y="412.249" style="fill:none;" width="96.506" height="10.686"/>
			
				<text transform="matrix(1 0 0 1 88.8247 420.5068)" style="fill:#494949; font-family:'Quicksand-Regular'; font-size:11.7969px;">YOUR SLOGAN</text>
		</g>
	</g>
	<g>
		<g>
			<g>
				<g>
					
						<linearGradient id="SVGID_00000089539145440560916480000017529554588767652785_" gradientUnits="userSpaceOnUse" x1="316.1776" y1="170.6055" x2="399.9293" y2="49.1656">
						<stop  offset="0" style="stop-color:#2CC8FF"/>
						<stop  offset="1" style="stop-color:#E3E872"/>
					</linearGradient>
					<path style="fill:url(#SVGID_00000089539145440560916480000017529554588767652785_);" d="M372.908,96.306
						c-0.679,0-1.358-0.259-1.876-0.777c-1.035-1.035-1.035-2.715,0.001-3.751l6.948-6.947c0.9-0.9,1.397-2.098,1.397-3.372V66.465
						c0-1.465,1.187-2.652,2.652-2.652c1.465,0,2.652,1.187,2.652,2.652v14.995c0,2.691-1.048,5.22-2.951,7.123l-6.948,6.948
						C374.266,96.047,373.587,96.306,372.908,96.306z"/>
				</g>
				<g>
					
						<linearGradient id="SVGID_00000114764531378148103490000003100835774709434508_" gradientUnits="userSpaceOnUse" x1="308.7196" y1="165.4622" x2="392.4715" y2="44.022">
						<stop  offset="0" style="stop-color:#2CC8FF"/>
						<stop  offset="1" style="stop-color:#E3E872"/>
					</linearGradient>
					<path style="fill:url(#SVGID_00000114764531378148103490000003100835774709434508_);" d="M372.754,104.191
						c-1.465,0-2.652-1.187-2.652-2.652V68.747c0-1.274-0.496-2.471-1.397-3.372l-6.801-6.801c-1.035-1.035-1.035-2.715,0-3.75
						c1.036-1.036,2.716-1.036,3.751,0l6.801,6.801c1.903,1.902,2.951,4.432,2.951,7.122v32.792
						C375.406,103.003,374.219,104.191,372.754,104.191z"/>
				</g>
				<g>
					
						<linearGradient id="SVGID_00000162340479831529285850000001663121830007777711_" gradientUnits="userSpaceOnUse" x1="289.2909" y1="152.0635" x2="373.0428" y2="30.6233">
						<stop  offset="0" style="stop-color:#2CC8FF"/>
						<stop  offset="1" style="stop-color:#E3E872"/>
					</linearGradient>
					<path style="fill:url(#SVGID_00000162340479831529285850000001663121830007777711_);" d="M358.619,60.906
						c-5.166,0-9.368-4.203-9.368-9.368c0-5.166,4.203-9.368,9.368-9.368c5.166,0,9.368,4.202,9.368,9.368
						C367.987,56.703,363.785,60.906,358.619,60.906z M358.619,47.474c-2.241,0-4.064,1.823-4.064,4.064
						c0,2.241,1.823,4.064,4.064,4.064c2.24,0,4.064-1.823,4.064-4.064C362.683,49.297,360.86,47.474,358.619,47.474z"/>
				</g>
				<g>
					
						<linearGradient id="SVGID_00000147899812954628312980000010248492117333242046_" gradientUnits="userSpaceOnUse" x1="297.7348" y1="157.8866" x2="381.4866" y2="36.4465">
						<stop  offset="0" style="stop-color:#2CC8FF"/>
						<stop  offset="1" style="stop-color:#E3E872"/>
					</linearGradient>
					<path style="fill:url(#SVGID_00000147899812954628312980000010248492117333242046_);" d="M357.159,79.629
						c-4.361,0-7.908-3.548-7.908-7.908s3.548-7.908,7.908-7.908c4.361,0,7.908,3.548,7.908,7.908S361.52,79.629,357.159,79.629z
						 M357.159,69.117c-1.436,0-2.604,1.168-2.604,2.604c0,1.436,1.168,2.604,2.604,2.604c1.436,0,2.604-1.168,2.604-2.604
						C359.764,70.285,358.595,69.117,357.159,69.117z"/>
				</g>
				<g>
					
						<linearGradient id="SVGID_00000046323688027222421930000002608479326085750963_" gradientUnits="userSpaceOnUse" x1="308.6894" y1="165.441" x2="392.4411" y2="44.001">
						<stop  offset="0" style="stop-color:#2CC8FF"/>
						<stop  offset="1" style="stop-color:#E3E872"/>
					</linearGradient>
					<polygon style="fill:url(#SVGID_00000046323688027222421930000002608479326085750963_);" points="370.879,89.191 
						358.823,77.135 362.573,73.385 374.629,85.44 					"/>
				</g>
			</g>
			<g>
				<g>
					
						<linearGradient id="SVGID_00000080897496684455324450000013685356305291609496_" gradientUnits="userSpaceOnUse" x1="304.1849" y1="162.3349" x2="387.9366" y2="40.895">
						<stop  offset="0" style="stop-color:#2CC8FF"/>
						<stop  offset="1" style="stop-color:#E3E872"/>
					</linearGradient>
					<path style="fill:url(#SVGID_00000080897496684455324450000013685356305291609496_);" d="M365.305,101.608
						c-0.966,0-1.897-0.53-2.365-1.449l-4.46-8.755c-0.578-1.134-1.564-1.976-2.775-2.369l-14.261-4.634
						c-1.392-0.453-2.155-1.949-1.703-3.342c0.454-1.393,1.95-2.153,3.342-1.703l14.261,4.634c2.559,0.832,4.641,2.61,5.862,5.006
						l4.46,8.756c0.665,1.304,0.146,2.902-1.159,3.567C366.122,101.515,365.71,101.608,365.305,101.608z"/>
				</g>
				<g>
					
						<linearGradient id="SVGID_00000093141174530917083560000006895907246013018534_" gradientUnits="userSpaceOnUse" x1="305.6059" y1="163.3151" x2="389.3576" y2="41.8751">
						<stop  offset="0" style="stop-color:#2CC8FF"/>
						<stop  offset="1" style="stop-color:#E3E872"/>
					</linearGradient>
					<path style="fill:url(#SVGID_00000093141174530917083560000006895907246013018534_);" d="M372.755,104.191
						c-0.272,0-0.548-0.042-0.82-0.13l-31.187-10.133c-1.21-0.394-2.503-0.292-3.638,0.286l-8.569,4.367
						c-1.305,0.664-2.902,0.147-3.567-1.159c-0.665-1.305-0.146-2.902,1.159-3.567l8.569-4.367c2.398-1.221,5.128-1.437,7.686-0.604
						l31.187,10.132c1.393,0.452,2.156,1.949,1.703,3.342C374.913,103.479,373.873,104.191,372.755,104.191z"/>
				</g>
				<g>
					
						<linearGradient id="SVGID_00000017482055706050190650000015343094888977966475_" gradientUnits="userSpaceOnUse" x1="286.1138" y1="149.8721" x2="369.8656" y2="28.432">
						<stop  offset="0" style="stop-color:#2CC8FF"/>
						<stop  offset="1" style="stop-color:#E3E872"/>
					</linearGradient>
					<path style="fill:url(#SVGID_00000017482055706050190650000015343094888977966475_);" d="M320.825,108.9
						c-0.957,0-1.929-0.147-2.887-0.459c-4.913-1.596-7.611-6.892-6.016-11.805c1.596-4.913,6.888-7.615,11.804-6.015h0.001
						c4.912,1.596,7.611,6.892,6.015,11.804C328.457,106.38,324.775,108.9,320.825,108.9z M320.835,95.467
						c-1.713,0-3.31,1.093-3.868,2.808c-0.693,2.131,0.478,4.428,2.61,5.121c2.131,0.693,4.427-0.478,5.12-2.61
						c0.693-2.131-0.479-4.428-2.609-5.12l0,0C321.672,95.531,321.251,95.467,320.835,95.467z"/>
				</g>
				<g>
					
						<linearGradient id="SVGID_00000010273474063978038070000014664043820908265606_" gradientUnits="userSpaceOnUse" x1="302.3806" y1="161.091" x2="386.1328" y2="39.6505">
						<stop  offset="0" style="stop-color:#2CC8FF"/>
						<stop  offset="1" style="stop-color:#E3E872"/>
					</linearGradient>
					<path style="fill:url(#SVGID_00000010273474063978038070000014664043820908265606_);" d="M339.586,115.068
						c-0.822,0-1.648-0.13-2.453-0.391c-4.147-1.347-6.424-5.818-5.077-9.965c0.653-2.009,2.049-3.644,3.931-4.603
						c1.881-0.959,4.025-1.126,6.034-0.475c4.147,1.347,6.425,5.817,5.078,9.965c-0.653,2.009-2.049,3.644-3.931,4.603
						C342.039,114.777,340.816,115.068,339.586,115.068z M339.574,104.551c-0.406,0-0.808,0.095-1.179,0.285
						c-0.62,0.316-1.08,0.854-1.294,1.515c-0.444,1.366,0.306,2.837,1.672,3.281c0.664,0.217,1.368,0.16,1.987-0.156
						c0.62-0.316,1.08-0.854,1.294-1.515c0.215-0.662,0.159-1.367-0.156-1.987c-0.316-0.62-0.854-1.08-1.516-1.294h-0.001
						C340.116,104.593,339.845,104.551,339.574,104.551z"/>
				</g>
				<g>
					
						<linearGradient id="SVGID_00000153695328683697672320000017039802455978298003_" gradientUnits="userSpaceOnUse" x1="307.6797" y1="164.745" x2="391.4312" y2="43.3054">
						<stop  offset="0" style="stop-color:#2CC8FF"/>
						<stop  offset="1" style="stop-color:#E3E872"/>
					</linearGradient>
					<polygon style="fill:url(#SVGID_00000153695328683697672320000017039802455978298003_);" points="345.241,107.247 
						342.832,102.521 358.023,94.781 360.432,99.507 					"/>
				</g>
			</g>
			<g>
				<g>
					
						<linearGradient id="SVGID_00000173135023294222968820000017983831145479258249_" gradientUnits="userSpaceOnUse" x1="317.924" y1="171.8101" x2="401.6756" y2="50.3702">
						<stop  offset="0" style="stop-color:#2CC8FF"/>
						<stop  offset="1" style="stop-color:#E3E872"/>
					</linearGradient>
					<path style="fill:url(#SVGID_00000173135023294222968820000017983831145479258249_);" d="M344.632,127.114
						c-0.54,0-1.086-0.164-1.557-0.506c-1.185-0.861-1.448-2.52-0.587-3.704l8.814-12.131c1.581-2.176,3.916-3.607,6.573-4.028
						l9.704-1.537c1.443-0.236,2.806,0.758,3.034,2.204c0.229,1.447-0.758,2.805-2.204,3.034l-9.704,1.537
						c-1.258,0.2-2.364,0.877-3.112,1.907l-8.814,12.131C346.261,126.735,345.452,127.114,344.632,127.114z"/>
				</g>
				<g>
					
						<linearGradient id="SVGID_00000060000531139694417060000017859495202947122062_" gradientUnits="userSpaceOnUse" x1="325.1456" y1="176.7906" x2="408.8972" y2="55.3508">
						<stop  offset="0" style="stop-color:#2CC8FF"/>
						<stop  offset="1" style="stop-color:#E3E872"/>
					</linearGradient>
					<path style="fill:url(#SVGID_00000060000531139694417060000017859495202947122062_);" d="M353.655,145.743
						c-1.282,0-2.409-0.932-2.616-2.238l-1.504-9.5c-0.421-2.657,0.218-5.319,1.799-7.496l19.275-26.53
						c0.86-1.187,2.518-1.449,3.704-0.587c1.185,0.861,1.448,2.52,0.587,3.704l-19.275,26.53c-0.748,1.03-1.051,2.291-0.852,3.548
						l1.504,9.5c0.229,1.447-0.758,2.805-2.204,3.034C353.932,145.732,353.793,145.743,353.655,145.743z"/>
				</g>
				<g>
					
						<linearGradient id="SVGID_00000005974047221344528900000016194967771023073923_" gradientUnits="userSpaceOnUse" x1="332.8604" y1="182.1111" x2="416.6121" y2="60.6713">
						<stop  offset="0" style="stop-color:#2CC8FF"/>
						<stop  offset="1" style="stop-color:#E3E872"/>
					</linearGradient>
					<path style="fill:url(#SVGID_00000005974047221344528900000016194967771023073923_);" d="M354.78,159.669
						c-1.962,0-3.869-0.615-5.487-1.791c-2.024-1.471-3.355-3.642-3.746-6.114c-0.391-2.471,0.203-4.948,1.674-6.972
						c1.471-2.024,3.642-3.355,6.113-3.746c2.471-0.392,4.948,0.202,6.973,1.674c2.024,1.471,3.355,3.642,3.746,6.114
						c0.391,2.471-0.203,4.948-1.674,6.972c-1.471,2.024-3.642,3.355-6.114,3.746C355.769,159.63,355.273,159.669,354.78,159.669z
						 M354.809,146.234c-0.214,0-0.429,0.017-0.644,0.051c-1.072,0.17-2.014,0.746-2.652,1.625v0.001
						c-0.638,0.878-0.896,1.951-0.726,3.023c0.17,1.072,0.747,2.014,1.625,2.652c0.878,0.638,1.949,0.896,3.024,0.726
						c1.072-0.17,2.014-0.747,2.652-1.625c0.638-0.879,0.896-1.952,0.726-3.024c-0.17-1.072-0.747-2.014-1.625-2.652
						C356.487,146.501,355.66,146.234,354.809,146.234z"/>
				</g>
				<g>
					
						<linearGradient id="SVGID_00000080177759935876847880000004060654100712237759_" gradientUnits="userSpaceOnUse" x1="334.4699" y1="183.221" x2="418.2215" y2="61.7812">
						<stop  offset="0" style="stop-color:#2CC8FF"/>
						<stop  offset="1" style="stop-color:#E3E872"/>
					</linearGradient>
					<path style="fill:url(#SVGID_00000080177759935876847880000004060654100712237759_);" d="M367.834,142.734
						c-1.611,0-3.237-0.49-4.638-1.508c-3.527-2.563-4.312-7.518-1.75-11.046l0,0c2.563-3.529,7.519-4.312,11.046-1.75
						c1.709,1.241,2.833,3.074,3.163,5.161c0.33,2.086-0.172,4.177-1.414,5.885C372.697,141.604,370.282,142.734,367.834,142.734z
						 M365.738,133.297c-0.844,1.162-0.585,2.794,0.576,3.637c1.164,0.846,2.795,0.587,3.638-0.576
						c0.409-0.563,0.574-1.251,0.466-1.938c-0.109-0.687-0.479-1.29-1.042-1.699C368.212,131.879,366.582,132.137,365.738,133.297
						L365.738,133.297z"/>
				</g>
				<g>
					
						<linearGradient id="SVGID_00000054256599733287837860000012282225594087098034_" gradientUnits="userSpaceOnUse" x1="326.7899" y1="177.9248" x2="410.5419" y2="56.4844">
						<stop  offset="0" style="stop-color:#2CC8FF"/>
						<stop  offset="1" style="stop-color:#E3E872"/>
					</linearGradient>
					<polygon style="fill:url(#SVGID_00000054256599733287837860000012282225594087098034_);" points="364.442,130.3 
						361.775,113.46 367.013,112.63 369.68,129.47 					"/>
				</g>
			</g>
			<g>
				<g>
					
						<linearGradient id="SVGID_00000101096361697942252720000002568390173893385102_" gradientUnits="userSpaceOnUse" x1="337.6269" y1="185.3983" x2="421.3786" y2="63.9584">
						<stop  offset="0" style="stop-color:#2CC8FF"/>
						<stop  offset="1" style="stop-color:#E3E872"/>
					</linearGradient>
					<path style="fill:url(#SVGID_00000101096361697942252720000002568390173893385102_);" d="M385.868,138.018
						c-0.82,0-1.629-0.379-2.148-1.093l-8.813-12.131c-1.581-2.175-2.221-4.837-1.8-7.496l1.538-9.705
						c0.23-1.447,1.598-2.433,3.034-2.204c1.447,0.229,2.434,1.587,2.204,3.034l-1.538,9.704c-0.199,1.258,0.104,2.518,0.853,3.548
						l8.813,12.131c0.861,1.185,0.598,2.843-0.587,3.704C386.954,137.854,386.408,138.018,385.868,138.018z"/>
				</g>
				<g>
					
						<linearGradient id="SVGID_00000055678229836735588720000010130961274595480979_" gradientUnits="userSpaceOnUse" x1="340.8738" y1="187.6379" x2="424.6257" y2="66.1977">
						<stop  offset="0" style="stop-color:#2CC8FF"/>
						<stop  offset="1" style="stop-color:#E3E872"/>
					</linearGradient>
					<path style="fill:url(#SVGID_00000055678229836735588720000010130961274595480979_);" d="M406.374,135.193
						c-0.138,0-0.277-0.011-0.419-0.033l-9.5-1.504c-2.657-0.421-4.991-1.851-6.573-4.027l-19.274-26.53
						c-0.861-1.185-0.598-2.843,0.587-3.704c1.185-0.861,2.844-0.598,3.704,0.587l19.274,26.53c0.749,1.03,1.854,1.707,3.112,1.907
						l9.5,1.504c1.446,0.229,2.433,1.587,2.204,3.034C408.784,134.261,407.656,135.193,406.374,135.193z"/>
				</g>
				<g>
					
						<linearGradient id="SVGID_00000114755729051100782000000008785066610029550976_" gradientUnits="userSpaceOnUse" x1="364.9279" y1="204.2268" x2="448.6796" y2="82.7868">
						<stop  offset="0" style="stop-color:#2CC8FF"/>
						<stop  offset="1" style="stop-color:#E3E872"/>
					</linearGradient>
					<path style="fill:url(#SVGID_00000114755729051100782000000008785066610029550976_);" d="M413.6,143.052
						c-0.493,0-0.989-0.039-1.485-0.117c-2.471-0.391-4.643-1.722-6.114-3.747c-1.471-2.024-2.065-4.5-1.674-6.972
						c0.391-2.471,1.722-4.643,3.747-6.113c2.023-1.472,4.5-2.064,6.971-1.674c2.471,0.391,4.643,1.722,6.114,3.747
						c1.471,2.024,2.065,4.5,1.674,6.971c-0.391,2.471-1.722,4.643-3.747,6.114C417.468,142.436,415.562,143.052,413.6,143.052z
						 M413.571,129.617c-0.851,0-1.678,0.267-2.379,0.777c-0.879,0.638-1.456,1.58-1.625,2.651c-0.17,1.072,0.088,2.146,0.726,3.025
						c0.638,0.878,1.58,1.455,2.652,1.625c1.077,0.172,2.146-0.088,3.023-0.726c0.879-0.638,1.456-1.58,1.626-2.652
						c0.17-1.072-0.088-2.146-0.726-3.023c-0.638-0.879-1.58-1.456-2.652-1.626C414,129.634,413.784,129.617,413.571,129.617z"/>
				</g>
				<g>
					
						<linearGradient id="SVGID_00000142136772778269866190000008660158324710306974_" gradientUnits="userSpaceOnUse" x1="349.656" y1="193.6943" x2="433.4078" y2="72.2543">
						<stop  offset="0" style="stop-color:#2CC8FF"/>
						<stop  offset="1" style="stop-color:#E3E872"/>
					</linearGradient>
					<path style="fill:url(#SVGID_00000142136772778269866190000008660158324710306974_);" d="M402.913,124.405
						c-0.416,0-0.835-0.033-1.253-0.099c-2.087-0.331-3.92-1.454-5.161-3.163c-2.563-3.529-1.778-8.484,1.75-11.046
						c3.528-2.564,8.484-1.777,11.046,1.75c2.563,3.528,1.778,8.484-1.75,11.046C406.179,123.885,404.57,124.405,402.913,124.405z
						 M402.891,113.891c-0.545,0-1.075,0.171-1.525,0.498c-0.563,0.409-0.932,1.012-1.042,1.699
						c-0.108,0.687,0.057,1.375,0.466,1.938c0.409,0.563,1.012,0.932,1.699,1.041c0.686,0.111,1.376-0.056,1.938-0.465
						c0.563-0.409,0.932-1.012,1.041-1.699c0.108-0.687-0.056-1.375-0.465-1.938c-0.409-0.563-1.012-0.932-1.699-1.041
						C403.167,113.901,403.028,113.891,402.891,113.891z"/>
				</g>
				<g>
					
						<linearGradient id="SVGID_00000140726866081133766930000015319460732030534280_" gradientUnits="userSpaceOnUse" x1="339.6109" y1="186.767" x2="423.3631" y2="65.3263">
						<stop  offset="0" style="stop-color:#2CC8FF"/>
						<stop  offset="1" style="stop-color:#E3E872"/>
					</linearGradient>
					<polygon style="fill:url(#SVGID_00000140726866081133766930000015319460732030534280_);" points="397.539,118.331 
						380.699,115.664 381.529,110.426 398.369,113.093 					"/>
				</g>
			</g>
			<g>
				<g>
					
						<linearGradient id="SVGID_00000052070975900279611910000001332351031277885351_" gradientUnits="userSpaceOnUse" x1="336.0628" y1="184.32" x2="419.8148" y2="62.8797">
						<stop  offset="0" style="stop-color:#2CC8FF"/>
						<stop  offset="1" style="stop-color:#E3E872"/>
					</linearGradient>
					<path style="fill:url(#SVGID_00000052070975900279611910000001332351031277885351_);" d="M392.413,107.176
						c-1.568,0-3.125-0.37-4.563-1.103l-8.755-4.461c-1.304-0.665-1.824-2.262-1.159-3.567c0.664-1.305,2.259-1.825,3.567-1.159
						l8.755,4.461c1.134,0.578,2.425,0.68,3.638,0.286l14.26-4.634c1.394-0.455,2.889,0.309,3.342,1.703
						c0.453,1.393-0.31,2.89-1.703,3.342l-14.26,4.634C394.512,107.011,393.46,107.176,392.413,107.176z"/>
				</g>
				<g>
					
						<linearGradient id="SVGID_00000027572474005549554440000012140173172803237807_" gradientUnits="userSpaceOnUse" x1="331.067" y1="180.8746" x2="414.8188" y2="59.4346">
						<stop  offset="0" style="stop-color:#2CC8FF"/>
						<stop  offset="1" style="stop-color:#E3E872"/>
					</linearGradient>
					<path style="fill:url(#SVGID_00000027572474005549554440000012140173172803237807_);" d="M372.754,104.191
						c-1.118,0-2.157-0.712-2.522-1.833c-0.453-1.392,0.31-2.889,1.703-3.342l31.187-10.133c1.211-0.394,2.197-1.236,2.774-2.369
						l4.368-8.571c0.664-1.306,2.264-1.823,3.567-1.159c1.305,0.665,1.824,2.262,1.159,3.567l-4.367,8.569
						c-1.22,2.396-3.302,4.174-5.862,5.006l-31.188,10.134C373.302,104.15,373.026,104.191,372.754,104.191z"/>
				</g>
				<g>
					
						<linearGradient id="SVGID_00000099654606564209240710000010941041485584941239_" gradientUnits="userSpaceOnUse" x1="338.0026" y1="185.6577" x2="421.7545" y2="64.2175">
						<stop  offset="0" style="stop-color:#2CC8FF"/>
						<stop  offset="1" style="stop-color:#E3E872"/>
					</linearGradient>
					<path style="fill:url(#SVGID_00000099654606564209240710000010941041485584941239_);" d="M415.929,82.017
						c-1.458,0-2.906-0.345-4.242-1.026c-2.23-1.136-3.884-3.073-4.657-5.452c-1.596-4.913,1.103-10.209,6.015-11.805
						c4.915-1.596,10.209,1.101,11.805,6.014c0.773,2.381,0.573,4.919-0.563,7.148c-1.136,2.229-3.072,3.883-5.452,4.656l0,0
						C417.882,81.863,416.903,82.017,415.929,82.017z M415.938,68.58c-0.415,0-0.837,0.064-1.253,0.2
						c-2.131,0.692-3.302,2.989-2.61,5.121c0.335,1.032,1.053,1.872,2.02,2.365c0.966,0.493,2.069,0.577,3.1,0.243h0.001
						c2.131-0.692,3.302-2.989,2.609-5.121C419.247,69.673,417.65,68.58,415.938,68.58z"/>
				</g>
				<g>
					
						<linearGradient id="SVGID_00000129922661765828398080000008159660831270358656_" gradientUnits="userSpaceOnUse" x1="326.9505" y1="178.0358" x2="410.7024" y2="56.5955">
						<stop  offset="0" style="stop-color:#2CC8FF"/>
						<stop  offset="1" style="stop-color:#E3E872"/>
					</linearGradient>
					<path style="fill:url(#SVGID_00000129922661765828398080000008159660831270358656_);" d="M396.285,85.405
						c-1.232,0-2.454-0.29-3.582-0.866c-1.882-0.96-3.278-2.594-3.931-4.603c-0.653-2.008-0.485-4.151,0.474-6.033
						c0.96-1.882,2.594-3.278,4.603-3.931c4.143-1.344,8.616,0.93,9.965,5.077c1.347,4.148-0.93,8.618-5.078,9.966
						C397.932,85.276,397.107,85.405,396.285,85.405z M396.291,74.889c-0.266,0-0.536,0.041-0.803,0.127
						c-0.661,0.215-1.2,0.675-1.515,1.294c-0.316,0.62-0.371,1.325-0.157,1.986c0.215,0.662,0.675,1.2,1.295,1.517
						c0.619,0.315,1.324,0.371,1.987,0.156c0.661-0.215,1.2-0.674,1.515-1.294c0.315-0.62,0.371-1.326,0.156-1.988
						C398.412,75.589,397.389,74.889,396.291,74.889z"/>
				</g>
				<g>
					
						<linearGradient id="SVGID_00000129909437489265299350000017752019564638430355_" gradientUnits="userSpaceOnUse" x1="328.4245" y1="179.0511" x2="412.1758" y2="57.6118">
						<stop  offset="0" style="stop-color:#2CC8FF"/>
						<stop  offset="1" style="stop-color:#E3E872"/>
					</linearGradient>
					<polygon style="fill:url(#SVGID_00000129909437489265299350000017752019564638430355_);" points="388.644,98.348 
						383.918,95.94 391.658,80.748 396.384,83.156 					"/>
				</g>
			</g>
		</g>
		<g>
			<rect x="300.076" y="178.135" style="fill:none;" width="136.623" height="20.303"/>
			<text transform="matrix(1 0 0 1 305.3711 193.8247)"><tspan x="0" y="0" style="fill:#494949;stroke:#494949;stroke-width:0.5;stroke-linejoin:round;stroke-miterlimit:10; font-family:'Quicksand-Bold'; font-size:22.4142px;">TECH</tspan><tspan x="58.747" y="0" style="fill:#494949; font-family:'Quicksand-Regular'; font-size:22.4142px;">LOGO</tspan></text>
			<rect x="322.548" y="200.283" style="fill:none;" width="91.68" height="10.151"/>
			
				<text transform="matrix(1 0 0 1 327.7393 208.127)" style="fill:#494949; font-family:'Quicksand-Regular'; font-size:11.2071px;">YOUR SLOGAN</text>
		</g>
	</g>
	<g>
		<g>
			<g>
				
					<linearGradient id="SVGID_00000031179783654646769890000016979770248170369679_" gradientUnits="userSpaceOnUse" x1="328.7194" y1="383.5704" x2="405.4918" y2="249.5675">
					<stop  offset="0" style="stop-color:#9331AA"/>
					<stop  offset="0.061" style="stop-color:#9D3AAC"/>
					<stop  offset="0.4254" style="stop-color:#D26DB6"/>
					<stop  offset="0.6991" style="stop-color:#F38DBC"/>
					<stop  offset="0.8487" style="stop-color:#FF99BE"/>
				</linearGradient>
				<path style="fill:url(#SVGID_00000031179783654646769890000016979770248170369679_);" d="M368.387,325.552
					c-6.186,0-11.22-5.033-11.22-11.219c0-6.187,5.034-11.219,11.22-11.219c6.186,0,11.219,5.033,11.219,11.219
					C379.606,320.519,374.573,325.552,368.387,325.552z M368.387,308.418c-3.262,0-5.915,2.654-5.915,5.915
					c0,3.261,2.653,5.915,5.915,5.915c3.261,0,5.913-2.653,5.913-5.915C374.3,311.072,371.648,308.418,368.387,308.418z"/>
			</g>
			<g>
				<g>
					
						<linearGradient id="SVGID_00000155864451010616473420000006310389076344202932_" gradientUnits="userSpaceOnUse" x1="314.4257" y1="375.3815" x2="391.1982" y2="241.3785">
						<stop  offset="0" style="stop-color:#9331AA"/>
						<stop  offset="0.061" style="stop-color:#9D3AAC"/>
						<stop  offset="0.4254" style="stop-color:#D26DB6"/>
						<stop  offset="0.6991" style="stop-color:#F38DBC"/>
						<stop  offset="0.8487" style="stop-color:#FF99BE"/>
					</linearGradient>
					<path style="fill:url(#SVGID_00000155864451010616473420000006310389076344202932_);" d="M359.82,316.986h-20.837
						c-1.465,0-2.653-1.187-2.653-2.652s1.187-2.652,2.653-2.652h20.837c1.465,0,2.653,1.187,2.653,2.652
						S361.285,316.986,359.82,316.986z"/>
				</g>
				<g>
					
						<linearGradient id="SVGID_00000160892669455322186140000014584183559238738367_" gradientUnits="userSpaceOnUse" x1="300.1315" y1="367.192" x2="376.9039" y2="233.1891">
						<stop  offset="0" style="stop-color:#9331AA"/>
						<stop  offset="0.061" style="stop-color:#9D3AAC"/>
						<stop  offset="0.4254" style="stop-color:#D26DB6"/>
						<stop  offset="0.6991" style="stop-color:#F38DBC"/>
						<stop  offset="0.8487" style="stop-color:#FF99BE"/>
					</linearGradient>
					<path style="fill:url(#SVGID_00000160892669455322186140000014584183559238738367_);" d="M330.415,325.552
						c-6.186,0-11.22-5.033-11.22-11.219c0-6.187,5.034-11.219,11.22-11.219c6.186,0,11.22,5.033,11.22,11.219
						C341.635,320.519,336.601,325.552,330.415,325.552z M330.415,308.418c-3.262,0-5.915,2.654-5.915,5.915
						c0,3.261,2.653,5.915,5.915,5.915c3.262,0,5.915-2.653,5.915-5.915C336.33,311.072,333.677,308.418,330.415,308.418z"/>
				</g>
			</g>
			<g>
				<g>
					
						<linearGradient id="SVGID_00000094584086642187397290000001276944761074076065_" gradientUnits="userSpaceOnUse" x1="328.6643" y1="383.5387" x2="405.4366" y2="249.5361">
						<stop  offset="0" style="stop-color:#9331AA"/>
						<stop  offset="0.061" style="stop-color:#9D3AAC"/>
						<stop  offset="0.4254" style="stop-color:#D26DB6"/>
						<stop  offset="0.6991" style="stop-color:#F38DBC"/>
						<stop  offset="0.8487" style="stop-color:#FF99BE"/>
					</linearGradient>
					<path style="fill:url(#SVGID_00000094584086642187397290000001276944761074076065_);" d="M353.681,342.451
						c-0.45,0-0.905-0.115-1.324-0.356c-1.268-0.733-1.703-2.354-0.971-3.623l10.419-18.046c0.731-1.267,2.353-1.703,3.623-0.971
						c1.268,0.733,1.703,2.354,0.971,3.623l-10.418,18.046C355.49,341.975,354.599,342.451,353.681,342.451z"/>
				</g>
				<g>
					
						<linearGradient id="SVGID_00000047759971946104816900000005038326493253787559_" gradientUnits="userSpaceOnUse" x1="328.6093" y1="383.5075" x2="405.3818" y2="249.5045">
						<stop  offset="0" style="stop-color:#9331AA"/>
						<stop  offset="0.061" style="stop-color:#9D3AAC"/>
						<stop  offset="0.4254" style="stop-color:#D26DB6"/>
						<stop  offset="0.6991" style="stop-color:#F38DBC"/>
						<stop  offset="0.8487" style="stop-color:#FF99BE"/>
					</linearGradient>
					<path style="fill:url(#SVGID_00000047759971946104816900000005038326493253787559_);" d="M349.382,358.441
						c-1.944,0-3.862-0.51-5.59-1.508c-5.357-3.093-7.2-9.968-4.107-15.325c3.093-5.357,9.966-7.202,15.326-4.107
						c2.595,1.499,4.452,3.918,5.228,6.812c0.776,2.895,0.376,5.918-1.122,8.514c-1.498,2.595-3.918,4.451-6.812,5.226
						C351.338,358.313,350.357,358.441,349.382,358.441z M349.411,341.304c-2.046,0-4.038,1.061-5.132,2.956
						c-1.63,2.824-0.658,6.449,2.166,8.079c1.366,0.789,2.959,0.999,4.487,0.591c1.525-0.409,2.801-1.387,3.591-2.755
						c0.791-1.369,1-2.963,0.592-4.489c-0.409-1.526-1.388-2.801-2.756-3.591C351.429,341.559,350.414,341.304,349.411,341.304z"/>
				</g>
			</g>
			<g>
				<g>
					
						<linearGradient id="SVGID_00000119111862099357267580000005491802015935825568_" gradientUnits="userSpaceOnUse" x1="342.9583" y1="391.7282" x2="419.7308" y2="257.7253">
						<stop  offset="0" style="stop-color:#9331AA"/>
						<stop  offset="0.061" style="stop-color:#9D3AAC"/>
						<stop  offset="0.4254" style="stop-color:#D26DB6"/>
						<stop  offset="0.6991" style="stop-color:#F38DBC"/>
						<stop  offset="0.8487" style="stop-color:#FF99BE"/>
					</linearGradient>
					<path style="fill:url(#SVGID_00000119111862099357267580000005491802015935825568_);" d="M383.091,342.451
						c-0.917,0-1.809-0.476-2.3-1.326l-10.419-18.046c-0.732-1.269-0.297-2.891,0.971-3.623c1.273-0.732,2.893-0.297,3.623,0.971
						l10.418,18.046c0.732,1.269,0.297,2.891-0.971,3.623C383.996,342.337,383.541,342.451,383.091,342.451z"/>
				</g>
				<g>
					
						<linearGradient id="SVGID_00000176040127581456193840000001292407646805770892_" gradientUnits="userSpaceOnUse" x1="357.1973" y1="399.8862" x2="433.9698" y2="265.8833">
						<stop  offset="0" style="stop-color:#9331AA"/>
						<stop  offset="0.061" style="stop-color:#9D3AAC"/>
						<stop  offset="0.4254" style="stop-color:#D26DB6"/>
						<stop  offset="0.6991" style="stop-color:#F38DBC"/>
						<stop  offset="0.8487" style="stop-color:#FF99BE"/>
					</linearGradient>
					<path style="fill:url(#SVGID_00000176040127581456193840000001292407646805770892_);" d="M387.391,358.441
						c-0.975,0-1.956-0.128-2.923-0.387c-2.894-0.776-5.314-2.632-6.812-5.227c-1.498-2.595-1.897-5.618-1.122-8.513
						c0.776-2.895,2.632-5.314,5.228-6.812c2.597-1.497,5.622-1.896,8.514-1.12c2.894,0.776,5.313,2.632,6.812,5.227
						c1.498,2.595,1.897,5.618,1.122,8.513c-0.776,2.895-2.632,5.314-5.228,6.812C391.254,357.931,389.334,358.441,387.391,358.441z
						 M387.362,341.3c-1.025,0-2.037,0.269-2.947,0.795c-1.369,0.79-2.347,2.065-2.756,3.591c-0.409,1.526-0.199,3.12,0.592,4.488
						c0.789,1.369,2.065,2.347,3.591,2.756c1.527,0.409,3.122,0.199,4.489-0.591c1.369-0.79,2.347-2.065,2.756-3.591
						c0.409-1.526,0.199-3.12-0.592-4.488c-0.789-1.369-2.065-2.347-3.59-2.756C388.394,341.368,387.876,341.3,387.362,341.3z"/>
				</g>
			</g>
			<g>
				<g>
					
						<linearGradient id="SVGID_00000107555578475930893070000004139322746009982081_" gradientUnits="userSpaceOnUse" x1="343.0135" y1="391.7597" x2="419.7858" y2="257.757">
						<stop  offset="0" style="stop-color:#9331AA"/>
						<stop  offset="0.061" style="stop-color:#9D3AAC"/>
						<stop  offset="0.4254" style="stop-color:#D26DB6"/>
						<stop  offset="0.6991" style="stop-color:#F38DBC"/>
						<stop  offset="0.8487" style="stop-color:#FF99BE"/>
					</linearGradient>
					<path style="fill:url(#SVGID_00000107555578475930893070000004139322746009982081_);" d="M397.791,316.986h-20.838
						c-1.465,0-2.653-1.187-2.653-2.652s1.187-2.652,2.653-2.652h20.838c1.465,0,2.653,1.187,2.653,2.652
						S399.257,316.986,397.791,316.986z"/>
				</g>
				<g>
					
						<linearGradient id="SVGID_00000021834005686279442530000004444578275105007249_" gradientUnits="userSpaceOnUse" x1="357.3073" y1="399.949" x2="434.0797" y2="265.9461">
						<stop  offset="0" style="stop-color:#9331AA"/>
						<stop  offset="0.061" style="stop-color:#9D3AAC"/>
						<stop  offset="0.4254" style="stop-color:#D26DB6"/>
						<stop  offset="0.6991" style="stop-color:#F38DBC"/>
						<stop  offset="0.8487" style="stop-color:#FF99BE"/>
					</linearGradient>
					<path style="fill:url(#SVGID_00000021834005686279442530000004444578275105007249_);" d="M406.357,325.552
						c-6.186,0-11.219-5.033-11.219-11.219c0-6.187,5.033-11.219,11.219-11.219c6.186,0,11.22,5.033,11.22,11.219
						C417.577,320.519,412.543,325.552,406.357,325.552z M406.357,308.418c-3.261,0-5.913,2.654-5.913,5.915
						c0,3.261,2.653,5.915,5.913,5.915c3.262,0,5.915-2.653,5.915-5.915C412.272,311.072,409.619,308.418,406.357,308.418z"/>
				</g>
			</g>
			<g>
				<g>
					
						<linearGradient id="SVGID_00000092437274958770907840000012810210137014099625_" gradientUnits="userSpaceOnUse" x1="328.7742" y1="383.6019" x2="405.5467" y2="249.5988">
						<stop  offset="0" style="stop-color:#9331AA"/>
						<stop  offset="0.061" style="stop-color:#9D3AAC"/>
						<stop  offset="0.4254" style="stop-color:#D26DB6"/>
						<stop  offset="0.6991" style="stop-color:#F38DBC"/>
						<stop  offset="0.8487" style="stop-color:#FF99BE"/>
					</linearGradient>
					<path style="fill:url(#SVGID_00000092437274958770907840000012810210137014099625_);" d="M372.667,309.566
						c-0.45,0-0.905-0.115-1.324-0.356c-1.268-0.733-1.703-2.354-0.971-3.623l10.419-18.045c0.732-1.267,2.353-1.703,3.623-0.971
						c1.268,0.733,1.703,2.354,0.971,3.623l-10.418,18.045C374.476,309.091,373.585,309.566,372.667,309.566z"/>
				</g>
				<g>
					
						<linearGradient id="SVGID_00000018939039021954046150000003992935510269267627_" gradientUnits="userSpaceOnUse" x1="328.8294" y1="383.6331" x2="405.6015" y2="249.6308">
						<stop  offset="0" style="stop-color:#9331AA"/>
						<stop  offset="0.061" style="stop-color:#9D3AAC"/>
						<stop  offset="0.4254" style="stop-color:#D26DB6"/>
						<stop  offset="0.6991" style="stop-color:#F38DBC"/>
						<stop  offset="0.8487" style="stop-color:#FF99BE"/>
					</linearGradient>
					<path style="fill:url(#SVGID_00000018939039021954046150000003992935510269267627_);" d="M387.354,292.673
						c-1.944,0-3.862-0.51-5.592-1.508l0,0c-2.595-1.499-4.452-3.918-5.228-6.812c-0.776-2.895-0.376-5.918,1.122-8.513
						c1.498-2.595,3.918-4.451,6.812-5.227c2.895-0.775,5.92-0.378,8.514,1.12c2.595,1.499,4.452,3.918,5.228,6.812
						c0.776,2.895,0.376,5.918-1.122,8.513c-1.498,2.595-3.918,4.451-6.812,5.227C389.31,292.545,388.328,292.673,387.354,292.673z
						 M384.415,286.572c1.367,0.789,2.961,0.998,4.489,0.591c1.525-0.409,2.801-1.388,3.59-2.756
						c0.791-1.369,1.001-2.963,0.592-4.489c-0.409-1.526-1.388-2.801-2.756-3.591c-1.367-0.791-2.964-0.998-4.489-0.591
						c-1.525,0.409-2.801,1.388-3.591,2.756c-0.791,1.369-1.001,2.963-0.592,4.489C382.067,284.506,383.046,285.782,384.415,286.572
						L384.415,286.572z"/>
				</g>
			</g>
			<g>
				<g>
					
						<linearGradient id="SVGID_00000111174124831912480900000002780990276789461141_" gradientUnits="userSpaceOnUse" x1="314.4801" y1="375.4126" x2="391.2525" y2="241.4097">
						<stop  offset="0" style="stop-color:#9331AA"/>
						<stop  offset="0.061" style="stop-color:#9D3AAC"/>
						<stop  offset="0.4254" style="stop-color:#D26DB6"/>
						<stop  offset="0.6991" style="stop-color:#F38DBC"/>
						<stop  offset="0.8487" style="stop-color:#FF99BE"/>
					</linearGradient>
					<path style="fill:url(#SVGID_00000111174124831912480900000002780990276789461141_);" d="M364.105,309.566
						c-0.917,0-1.809-0.476-2.3-1.326l-10.419-18.045c-0.732-1.269-0.297-2.891,0.971-3.623c1.273-0.733,2.893-0.297,3.623,0.971
						l10.418,18.045c0.732,1.269,0.297,2.891-0.971,3.623C365.01,309.452,364.555,309.566,364.105,309.566z"/>
				</g>
				<g>
					
						<linearGradient id="SVGID_00000096042335137989685530000012720235052377669029_" gradientUnits="userSpaceOnUse" x1="300.2446" y1="367.2569" x2="377.0171" y2="233.2539">
						<stop  offset="0" style="stop-color:#9331AA"/>
						<stop  offset="0.061" style="stop-color:#9D3AAC"/>
						<stop  offset="0.4254" style="stop-color:#D26DB6"/>
						<stop  offset="0.6991" style="stop-color:#F38DBC"/>
						<stop  offset="0.8487" style="stop-color:#FF99BE"/>
					</linearGradient>
					<path style="fill:url(#SVGID_00000096042335137989685530000012720235052377669029_);" d="M349.42,292.666
						c-3.881,0-7.659-2.012-9.736-5.607c-3.093-5.358-1.25-12.233,4.107-15.326c2.595-1.498,5.619-1.896,8.513-1.12
						c2.894,0.776,5.314,2.632,6.812,5.228c1.498,2.595,1.897,5.618,1.122,8.513c-0.776,2.895-2.632,5.314-5.228,6.812l0,0
						C353.248,292.182,351.322,292.666,349.42,292.666z M353.684,288.868h0.014H353.684z M349.391,275.531
						c-1.025,0-2.036,0.269-2.947,0.795c-2.825,1.63-3.796,5.256-2.166,8.08c1.632,2.825,5.259,3.793,8.079,2.165
						c1.369-0.79,2.347-2.065,2.756-3.591c0.409-1.526,0.199-3.12-0.592-4.488c-0.789-1.369-2.065-2.347-3.591-2.756
						C350.422,275.6,349.904,275.531,349.391,275.531z"/>
				</g>
			</g>
			<g>
				<g>
					
						<linearGradient id="SVGID_00000106869014011071077080000011452712813247741853_" gradientUnits="userSpaceOnUse" x1="317.5519" y1="377.1724" x2="394.3242" y2="243.1697">
						<stop  offset="0" style="stop-color:#9331AA"/>
						<stop  offset="0.061" style="stop-color:#9D3AAC"/>
						<stop  offset="0.4254" style="stop-color:#D26DB6"/>
						<stop  offset="0.6991" style="stop-color:#F38DBC"/>
						<stop  offset="0.8487" style="stop-color:#FF99BE"/>
					</linearGradient>
					<path style="fill:url(#SVGID_00000106869014011071077080000011452712813247741853_);" d="M331.48,338.296
						c-0.917,0-1.809-0.476-2.3-1.326c-0.732-1.269-0.297-2.891,0.971-3.623l29.49-17.026c1.273-0.733,2.891-0.297,3.623,0.97
						c0.732,1.269,0.297,2.891-0.97,3.623l-29.49,17.026C332.385,338.181,331.93,338.296,331.48,338.296z"/>
				</g>
				<g>
					
						<linearGradient id="SVGID_00000010295423595757427000000013974049417985063322_" gradientUnits="userSpaceOnUse" x1="307.5113" y1="371.4199" x2="384.2837" y2="237.417">
						<stop  offset="0" style="stop-color:#9331AA"/>
						<stop  offset="0.061" style="stop-color:#9D3AAC"/>
						<stop  offset="0.4254" style="stop-color:#D26DB6"/>
						<stop  offset="0.6991" style="stop-color:#F38DBC"/>
						<stop  offset="0.8487" style="stop-color:#FF99BE"/>
					</linearGradient>
					<path style="fill:url(#SVGID_00000010295423595757427000000013974049417985063322_);" d="M326.292,347.274
						c-0.739,0-1.487-0.095-2.234-0.295c-4.599-1.232-7.339-5.978-6.107-10.578c1.234-4.602,5.977-7.335,10.579-6.108
						c4.599,1.232,7.339,5.978,6.107,10.578v0.001C333.603,344.725,330.104,347.274,326.292,347.274z M326.294,335.302
						c-1.471,0-2.822,0.984-3.221,2.471c-0.474,1.774,0.582,3.606,2.358,4.081c1.772,0.48,3.605-0.581,4.083-2.357
						c0.474-1.776-0.583-3.606-2.358-4.081C326.868,335.339,326.579,335.302,326.294,335.302z M332.075,340.185h0.014H332.075z"/>
				</g>
			</g>
			<g>
				<g>
					
						<linearGradient id="SVGID_00000090253624826871682980000015597141722574361233_" gradientUnits="userSpaceOnUse" x1="339.759" y1="389.8953" x2="416.5312" y2="255.8928">
						<stop  offset="0" style="stop-color:#9331AA"/>
						<stop  offset="0.061" style="stop-color:#9D3AAC"/>
						<stop  offset="0.4254" style="stop-color:#D26DB6"/>
						<stop  offset="0.6991" style="stop-color:#F38DBC"/>
						<stop  offset="0.8487" style="stop-color:#FF99BE"/>
					</linearGradient>
					<path style="fill:url(#SVGID_00000090253624826871682980000015597141722574361233_);" d="M368.387,359.605
						c-1.465,0-2.653-1.187-2.653-2.652V322.9c0-1.465,1.187-2.652,2.653-2.652c1.465,0,2.653,1.187,2.653,2.652v34.053
						C371.04,358.418,369.852,359.605,368.387,359.605z"/>
				</g>
				<g>
					
						<linearGradient id="SVGID_00000168107700767420257630000008001149514842011820_" gradientUnits="userSpaceOnUse" x1="349.6842" y1="395.5816" x2="426.4564" y2="261.5791">
						<stop  offset="0" style="stop-color:#9331AA"/>
						<stop  offset="0.061" style="stop-color:#9D3AAC"/>
						<stop  offset="0.4254" style="stop-color:#D26DB6"/>
						<stop  offset="0.6991" style="stop-color:#F38DBC"/>
						<stop  offset="0.8487" style="stop-color:#FF99BE"/>
					</linearGradient>
					<path style="fill:url(#SVGID_00000168107700767420257630000008001149514842011820_);" d="M368.387,371.575
						c-2.307,0-4.477-0.898-6.108-2.529c-1.632-1.632-2.53-3.801-2.53-6.108c0-2.307,0.898-4.476,2.53-6.108
						c1.632-1.631,3.8-2.53,6.108-2.53c2.306,0,4.475,0.899,6.107,2.53l0,0c1.632,1.632,2.53,3.8,2.53,6.108
						c0,2.307-0.898,4.477-2.53,6.108C372.862,370.677,370.693,371.575,368.387,371.575z M368.387,359.605
						c-0.89,0-1.727,0.347-2.357,0.976c-0.63,0.63-0.977,1.467-0.977,2.357c0,0.89,0.348,1.728,0.977,2.357
						c1.259,1.26,3.456,1.259,4.712,0.001c0.63-0.63,0.977-1.467,0.977-2.358c0-0.89-0.348-1.727-0.977-2.356v-0.001
						C370.113,359.951,369.277,359.605,368.387,359.605z"/>
				</g>
			</g>
			<g>
				<g>
					
						<linearGradient id="SVGID_00000037678019626291200150000013771151357807934869_" gradientUnits="userSpaceOnUse" x1="350.9259" y1="396.2924" x2="427.6981" y2="262.2898">
						<stop  offset="0" style="stop-color:#9331AA"/>
						<stop  offset="0.061" style="stop-color:#9D3AAC"/>
						<stop  offset="0.4254" style="stop-color:#D26DB6"/>
						<stop  offset="0.6991" style="stop-color:#F38DBC"/>
						<stop  offset="0.8487" style="stop-color:#FF99BE"/>
					</linearGradient>
					<path style="fill:url(#SVGID_00000037678019626291200150000013771151357807934869_);" d="M405.293,338.296
						c-0.45,0-0.905-0.115-1.324-0.356l-29.49-17.026c-1.268-0.733-1.703-2.354-0.971-3.623c0.732-1.267,2.353-1.703,3.623-0.97
						l29.49,17.026c1.268,0.733,1.702,2.354,0.97,3.623C407.102,337.82,406.21,338.296,405.293,338.296z"/>
				</g>
				<g>
					
						<linearGradient id="SVGID_00000143617970449247611510000012970992298403613871_" gradientUnits="userSpaceOnUse" x1="370.8929" y1="407.7324" x2="447.6653" y2="273.7295">
						<stop  offset="0" style="stop-color:#9331AA"/>
						<stop  offset="0.061" style="stop-color:#9D3AAC"/>
						<stop  offset="0.4254" style="stop-color:#D26DB6"/>
						<stop  offset="0.6991" style="stop-color:#F38DBC"/>
						<stop  offset="0.8487" style="stop-color:#FF99BE"/>
					</linearGradient>
					<path style="fill:url(#SVGID_00000143617970449247611510000012970992298403613871_);" d="M410.466,347.277
						c-1.497,0-2.974-0.393-4.305-1.161c-1.998-1.154-3.428-3.017-4.024-5.245c-0.598-2.227-0.292-4.555,0.862-6.553
						s3.017-3.428,5.244-4.025h0.001c4.592-1.234,9.344,1.508,10.578,6.107c0.598,2.229,0.292,4.557-0.862,6.555
						c-1.155,1.998-3.017,3.428-5.247,4.025C411.971,347.178,411.216,347.277,410.466,347.277z M409.615,335.417
						c-0.859,0.23-1.577,0.782-2.023,1.553c-0.444,0.771-0.563,1.669-0.333,2.529c0.23,0.861,0.783,1.579,1.553,2.024
						c0.77,0.444,1.669,0.562,2.529,0.333c0.861-0.23,1.58-0.782,2.026-1.553c0.444-0.771,0.563-1.669,0.333-2.529
						C413.224,335.999,411.391,334.943,409.615,335.417L409.615,335.417z"/>
				</g>
			</g>
			<g>
				<g>
					
						<linearGradient id="SVGID_00000041296016029121980430000006686436701653756602_" gradientUnits="userSpaceOnUse" x1="339.8864" y1="389.9684" x2="416.6587" y2="255.9656">
						<stop  offset="0" style="stop-color:#9331AA"/>
						<stop  offset="0.061" style="stop-color:#9D3AAC"/>
						<stop  offset="0.4254" style="stop-color:#D26DB6"/>
						<stop  offset="0.6991" style="stop-color:#F38DBC"/>
						<stop  offset="0.8487" style="stop-color:#FF99BE"/>
					</linearGradient>
					<path style="fill:url(#SVGID_00000041296016029121980430000006686436701653756602_);" d="M375.808,312.703
						c-0.917,0-1.809-0.476-2.3-1.326c-0.732-1.269-0.297-2.891,0.971-3.623l29.49-17.026c1.272-0.732,2.893-0.297,3.623,0.971
						c0.732,1.269,0.297,2.89-0.97,3.623l-29.49,17.026C376.713,312.588,376.258,312.703,375.808,312.703z"/>
				</g>
				<g>
					
						<linearGradient id="SVGID_00000073684514240867605060000001055296305216457105_" gradientUnits="userSpaceOnUse" x1="349.9266" y1="395.7202" x2="426.6989" y2="261.7176">
						<stop  offset="0" style="stop-color:#9331AA"/>
						<stop  offset="0.061" style="stop-color:#9D3AAC"/>
						<stop  offset="0.4254" style="stop-color:#D26DB6"/>
						<stop  offset="0.6991" style="stop-color:#F38DBC"/>
						<stop  offset="0.8487" style="stop-color:#FF99BE"/>
					</linearGradient>
					<path style="fill:url(#SVGID_00000073684514240867605060000001055296305216457105_);" d="M410.475,298.669
						c-0.737,0-1.486-0.095-2.232-0.295c-4.602-1.234-7.341-5.979-6.107-10.579c0.597-2.228,2.026-4.091,4.024-5.244
						c1.997-1.154,4.324-1.461,6.554-0.863c2.229,0.597,4.091,2.026,5.245,4.025c1.153,1.998,1.46,4.326,0.862,6.555
						C417.789,296.121,414.29,298.669,410.475,298.669z M410.474,286.696c-0.578,0-1.148,0.151-1.662,0.448
						c-0.77,0.445-1.322,1.164-1.553,2.024v0.001c-0.476,1.775,0.582,3.605,2.357,4.082c1.771,0.471,3.605-0.582,4.083-2.358
						c0.23-0.859,0.112-1.758-0.333-2.529c-0.446-0.771-1.164-1.322-2.024-1.553C411.055,286.734,410.763,286.696,410.474,286.696z
						 M404.698,288.482h0.014H404.698z"/>
				</g>
			</g>
			<g>
				<g>
					
						<linearGradient id="SVGID_00000003803027482078220310000018203073845437003401_" gradientUnits="userSpaceOnUse" x1="317.6805" y1="377.246" x2="394.4529" y2="243.2431">
						<stop  offset="0" style="stop-color:#9331AA"/>
						<stop  offset="0.061" style="stop-color:#9D3AAC"/>
						<stop  offset="0.4254" style="stop-color:#D26DB6"/>
						<stop  offset="0.6991" style="stop-color:#F38DBC"/>
						<stop  offset="0.8487" style="stop-color:#FF99BE"/>
					</linearGradient>
					<path style="fill:url(#SVGID_00000003803027482078220310000018203073845437003401_);" d="M368.387,308.418
						c-1.465,0-2.653-1.187-2.653-2.652v-34.052c0-1.465,1.187-2.652,2.653-2.652c1.465,0,2.653,1.187,2.653,2.652v34.052
						C371.04,307.231,369.852,308.418,368.387,308.418z"/>
				</g>
				<g>
					
						<linearGradient id="SVGID_00000082346680234274255670000001447962885257538226_" gradientUnits="userSpaceOnUse" x1="307.7541" y1="371.5594" x2="384.5266" y2="237.5562">
						<stop  offset="0" style="stop-color:#9331AA"/>
						<stop  offset="0.061" style="stop-color:#9D3AAC"/>
						<stop  offset="0.4254" style="stop-color:#D26DB6"/>
						<stop  offset="0.6991" style="stop-color:#F38DBC"/>
						<stop  offset="0.8487" style="stop-color:#FF99BE"/>
					</linearGradient>
					<path style="fill:url(#SVGID_00000082346680234274255670000001447962885257538226_);" d="M368.387,274.366
						c-2.307,0-4.477-0.898-6.108-2.529v-0.001c-1.632-1.631-2.53-3.801-2.53-6.108s0.898-4.476,2.53-6.108
						c1.632-1.631,3.8-2.53,6.108-2.53c2.308,0,4.477,0.899,6.107,2.531c1.632,1.631,2.53,3.8,2.53,6.107s-0.898,4.477-2.53,6.108
						C372.862,273.468,370.693,274.366,368.387,274.366z M366.03,268.086c1.259,1.258,3.456,1.258,4.712,0
						c0.63-0.63,0.977-1.467,0.977-2.358c0-0.89-0.348-1.727-0.977-2.356c-1.26-1.261-3.453-1.259-4.712-0.001
						c-0.63,0.63-0.977,1.467-0.977,2.357C365.053,266.619,365.4,267.456,366.03,268.086L366.03,268.086z"/>
				</g>
			</g>
			<g>
				<g>
					
						<linearGradient id="SVGID_00000078754011425307131790000010061306038029375129_" gradientUnits="userSpaceOnUse" x1="306.5123" y1="370.8484" x2="383.2851" y2="236.8448">
						<stop  offset="0" style="stop-color:#9331AA"/>
						<stop  offset="0.061" style="stop-color:#9D3AAC"/>
						<stop  offset="0.4254" style="stop-color:#D26DB6"/>
						<stop  offset="0.6991" style="stop-color:#F38DBC"/>
						<stop  offset="0.8487" style="stop-color:#FF99BE"/>
					</linearGradient>
					<path style="fill:url(#SVGID_00000078754011425307131790000010061306038029375129_);" d="M360.965,312.703
						c-0.45,0-0.905-0.115-1.324-0.356l-29.49-17.026c-1.268-0.733-1.703-2.354-0.971-3.623c0.732-1.268,2.353-1.703,3.623-0.971
						l29.49,17.026c1.268,0.733,1.703,2.354,0.97,3.623C362.773,312.227,361.882,312.703,360.965,312.703z"/>
				</g>
				<g>
					
						<linearGradient id="SVGID_00000027601732153079212710000016340762356949493950_" gradientUnits="userSpaceOnUse" x1="286.5461" y1="359.4082" x2="363.3182" y2="225.406">
						<stop  offset="0" style="stop-color:#9331AA"/>
						<stop  offset="0.061" style="stop-color:#9D3AAC"/>
						<stop  offset="0.4254" style="stop-color:#D26DB6"/>
						<stop  offset="0.6991" style="stop-color:#F38DBC"/>
						<stop  offset="0.8487" style="stop-color:#FF99BE"/>
					</linearGradient>
					<path style="fill:url(#SVGID_00000027601732153079212710000016340762356949493950_);" d="M326.296,298.669
						c-3.813,0-7.312-2.548-8.345-6.403c-1.232-4.601,1.508-9.346,6.107-10.579c4.609-1.235,9.347,1.508,10.579,6.108
						c1.232,4.601-1.508,9.346-6.107,10.579v0.001C327.783,298.574,327.033,298.669,326.296,298.669z M327.843,295.812h0.014
						H327.843z M326.293,286.697c-0.285,0-0.574,0.037-0.862,0.115c-1.776,0.475-2.833,2.307-2.358,4.083
						c0.477,1.775,2.313,2.835,4.083,2.356c1.775-0.476,2.833-2.307,2.358-4.083C329.115,287.681,327.764,286.697,326.293,286.697z"
						/>
				</g>
			</g>
		</g>
		<g>
			<rect x="296.481" y="388.936" style="fill:none;" width="143.814" height="21.372"/>
			<text transform="matrix(1 0 0 1 302.0547 405.4512)"><tspan x="0" y="0" style="fill:#494949;stroke:#494949;stroke-width:0.5;stroke-linejoin:round;stroke-miterlimit:10; font-family:'Quicksand-Bold'; font-size:23.5939px;">TECH</tspan><tspan x="61.84" y="0" style="fill:#494949; font-family:'Quicksand-Regular'; font-size:23.5939px;">LOGO</tspan></text>
			<rect x="320.135" y="412.249" style="fill:none;" width="96.506" height="10.686"/>
			
				<text transform="matrix(1 0 0 1 325.6006 420.5068)" style="fill:#494949; font-family:'Quicksand-Regular'; font-size:11.7969px;">YOUR SLOGAN</text>
		</g>
	</g>
</g>
<g id="DESIGNED_BY_FREEPIK">
	<g>
		<g id="XMLID_1_">
			<g id="XMLID_20_">
				<path id="XMLID_28_" style="fill:#A5B7C6;" d="M260.104,465.465c-0.433,0.443-0.804,0.932-1.108,1.453l-0.466-0.24
					c-0.066-0.299-0.349-0.504-0.658-0.467c-0.331,0.039-0.568,0.338-0.529,0.67c0.039,0.33,0.339,0.568,0.67,0.529
					c0.065-0.008,0.127-0.027,0.184-0.053l0.451,0.234c-0.251,0.553-0.433,1.139-0.539,1.744l0.746,0.131
					c0.23-1.307,0.85-2.506,1.792-3.473L260.104,465.465z"/>
				<path id="XMLID_27_" style="fill:#A5B7C6;" d="M265.592,463.162c-0.171,0-0.341,0.008-0.51,0.018l-0.073-0.625
					c0.188-0.15,0.296-0.391,0.266-0.645c-0.046-0.395-0.402-0.676-0.795-0.629c-0.394,0.047-0.675,0.402-0.629,0.795
					c0.03,0.254,0.189,0.461,0.405,0.564l0.073,0.623c-0.714,0.117-1.403,0.332-2.06,0.646l0.327,0.684
					c0.934-0.447,1.941-0.672,2.995-0.672c0.496,0,0.993,0.053,1.475,0.156l0.161-0.74
					C266.692,463.223,266.143,463.162,265.592,463.162z"/>
				<path id="XMLID_26_" style="fill:#A5B7C6;" d="M272.194,465.711c0.331-0.041,0.566-0.342,0.525-0.674
					c-0.04-0.33-0.342-0.564-0.672-0.525c-0.31,0.039-0.535,0.305-0.53,0.609l-0.416,0.363c-0.418-0.43-0.89-0.813-1.408-1.139
					l-0.403,0.641c1.134,0.715,2.02,1.727,2.563,2.926l0.69-0.313c-0.251-0.555-0.567-1.072-0.942-1.545l0.402-0.352
					C272.064,465.715,272.129,465.719,272.194,465.711z"/>
				<path id="XMLID_25_" style="fill:#A5B7C6;" d="M265.044,473.371c-0.386,0.023-0.774,0.035-1.157,0.035
					c-0.88,0-1.732-0.061-2.478-0.18c-0.391-0.063-0.847-0.154-1.27-0.291c1.046,1.859,3.069,3.125,5.389,3.125
					c2.855,0,5.262-1.916,5.949-4.504c-0.682,0.449-1.506,0.824-2.459,1.123C267.839,473.047,266.464,473.285,265.044,473.371z"/>
				<path id="XMLID_21_" style="fill:#A5B7C6;" d="M265.592,464.68c-3.353,0-6.079,2.666-6.079,5.943
					c0,0.426,0.046,0.848,0.137,1.262c0.674,0.482,2.706,0.889,5.348,0.73c2.879-0.174,5.297-0.957,6.672-2.158
					c-0.005-0.195-0.021-0.391-0.045-0.582C271.244,466.912,268.65,464.68,265.592,464.68z M263.433,471.193
					c-1.021,0-1.85-0.83-1.85-1.85c0-1.02,0.829-1.85,1.85-1.85c1.02,0,1.85,0.83,1.85,1.85
					C265.282,470.363,264.452,471.193,263.433,471.193z M268.17,470.285c-0.75,0-1.36-0.609-1.36-1.359s0.61-1.361,1.36-1.361
					s1.36,0.611,1.36,1.361S268.92,470.285,268.17,470.285z"/>
			</g>
			<path id="XMLID_18_" style="fill:#A5B7C6;" d="M281.596,466.547c-0.295-0.117-0.806-0.309-1.383-0.238
				c-0.551,0.068-0.844,0.342-0.844,1.008v0.865h2.228v1.717h-2.228v5.455h-1.932v-5.455h-1.34v-1.717h1.34v-0.889
				c0-1.68,0.896-2.783,2.568-2.783c0.642,0,1.157,0.123,1.59,0.309V466.547z"/>
			<path id="XMLID_16_" style="fill:#A5B7C6;" d="M286.298,469.879c-0.177-0.031-0.357-0.047-0.526-0.047
				c-0.895,0-1.51,0.547-1.51,1.613v3.908h-1.932v-7.172h1.873v0.785c0.451-0.674,1.14-0.978,2.021-0.978
				c0.414,0,0.848,0.129,1.094,0.338L286.298,469.879z"/>
			<path id="XMLID_13_" style="fill:#A5B7C6;" d="M293.965,471.756c0,0.223-0.015,0.488-0.037,0.652h-5.084
				c0.207,1.035,0.933,1.486,1.843,1.486c0.621,0,1.295-0.25,1.814-0.688l1.132,1.244c-0.813,0.746-1.85,1.088-3.057,1.088
				c-2.198,0-3.723-1.496-3.723-3.754c0-2.256,1.481-3.797,3.627-3.797C292.544,467.988,293.958,469.522,293.965,471.756z
				 M288.851,471.09h3.175c-0.177-0.918-0.732-1.436-1.561-1.436C289.554,469.654,289.021,470.201,288.851,471.09z"/>
			<path id="XMLID_10_" style="fill:#A5B7C6;" d="M301.618,471.756c0,0.223-0.015,0.488-0.037,0.652h-5.084
				c0.207,1.035,0.933,1.486,1.843,1.486c0.621,0,1.295-0.25,1.814-0.688l1.132,1.244c-0.814,0.746-1.851,1.088-3.057,1.088
				c-2.198,0-3.723-1.496-3.723-3.754c0-2.256,1.48-3.797,3.626-3.797C300.197,467.988,301.611,469.522,301.618,471.756z
				 M296.504,471.09h3.176c-0.178-0.918-0.733-1.436-1.563-1.436C297.207,469.654,296.674,470.201,296.504,471.09z"/>
			<path id="XMLID_7_" style="fill:#A5B7C6;" d="M309.964,471.764c0,2.154-1.495,3.775-3.471,3.775
				c-0.963,0-1.644-0.379-2.109-0.934v3.709h-1.925v-10.133h1.888v0.791c0.466-0.584,1.154-0.984,2.139-0.984
				C308.469,467.988,309.964,469.609,309.964,471.764z M304.287,471.764c0,1.133,0.748,1.977,1.843,1.977
				c1.14,0,1.851-0.881,1.851-1.977s-0.711-1.977-1.851-1.977C305.035,469.787,304.287,470.631,304.287,471.764z"/>
			<path id="XMLID_4_" style="fill:#A5B7C6;" d="M313.067,465.836c0,0.695-0.54,1.229-1.235,1.229c-0.696,0-1.23-0.533-1.23-1.229
				c0-0.697,0.533-1.244,1.23-1.244C312.527,464.592,313.067,465.139,313.067,465.836z M312.809,475.353h-1.932v-7.172h1.932
				V475.353z"/>
			<path id="XMLID_2_" style="fill:#A5B7C6;" d="M316.032,470.734l2.701-2.553h2.369l-3.479,3.375l3.501,3.797h-2.376l-2.716-2.902
				v2.902h-1.932v-10.658h1.932V470.734z"/>
		</g>
		<g>
			<path style="fill:#A5B7C6;" d="M184.412,475.289v-1.055c-0.527,0.717-1.391,1.23-2.387,1.23c-1.846,0-3.15-1.406-3.15-3.707
				c0-2.256,1.289-3.721,3.15-3.721c0.951,0,1.816,0.469,2.387,1.246v-3.766h1.1v9.771H184.412z M184.412,473.369v-3.207
				c-0.395-0.615-1.244-1.143-2.123-1.143c-1.422,0-2.271,1.172-2.271,2.738c0,1.568,0.85,2.725,2.271,2.725
				C183.168,474.482,184.018,473.984,184.412,473.369z"/>
			<path style="fill:#A5B7C6;" d="M186.932,471.744c0-2.051,1.465-3.707,3.486-3.707c2.139,0,3.398,1.67,3.398,3.795v0.277h-5.727
				c0.088,1.334,1.025,2.447,2.549,2.447c0.806,0,1.626-0.322,2.183-0.895l0.527,0.719c-0.703,0.703-1.655,1.084-2.813,1.084
				C188.44,475.465,186.932,473.955,186.932,471.744z M190.403,468.945c-1.509,0-2.256,1.275-2.314,2.359h4.643
				C192.718,470.25,192.015,468.945,190.403,468.945z"/>
			<path style="fill:#A5B7C6;" d="M194.607,474.352l0.57-0.791c0.469,0.541,1.363,1.01,2.33,1.01c1.084,0,1.67-0.512,1.67-1.215
				c0-1.715-4.381-0.66-4.381-3.281c0-1.1,0.953-2.037,2.637-2.037c1.201,0,2.051,0.455,2.623,1.025l-0.514,0.762
				c-0.424-0.512-1.201-0.893-2.109-0.893c-0.967,0-1.566,0.482-1.566,1.113c0,1.553,4.379,0.527,4.379,3.281
				c0,1.185-0.951,2.139-2.783,2.139C196.307,475.465,195.324,475.113,194.607,474.352z"/>
			<path style="fill:#A5B7C6;" d="M201.477,466.471c0-0.41,0.338-0.748,0.732-0.748c0.41,0,0.747,0.338,0.747,0.748
				c0,0.41-0.337,0.732-0.747,0.732C201.814,467.203,201.477,466.881,201.477,466.471z M201.667,475.289v-7.076h1.099v7.076H201.667
				z"/>
			<path style="fill:#A5B7C6;" d="M204.582,477.105l0.557-0.82c0.586,0.703,1.289,0.967,2.3,0.967c1.172,0,2.271-0.572,2.271-2.125
				v-1.01c-0.513,0.717-1.377,1.26-2.373,1.26c-1.846,0-3.149-1.377-3.149-3.662c0-2.271,1.288-3.678,3.149-3.678
				c0.951,0,1.802,0.469,2.373,1.246v-1.07h1.098v6.871c0,2.344-1.641,3.076-3.368,3.076
				C206.237,478.16,205.417,477.926,204.582,477.105z M209.709,473.252v-3.09c-0.381-0.615-1.231-1.143-2.109-1.143
				c-1.422,0-2.271,1.127-2.271,2.695c0,1.553,0.849,2.695,2.271,2.695C208.478,474.41,209.328,473.867,209.709,473.252z"/>
			<path style="fill:#A5B7C6;" d="M217.413,475.289v-4.629c0-1.246-0.63-1.641-1.581-1.641c-0.865,0-1.686,0.527-2.096,1.098v5.172
				h-1.098v-7.076h1.098v1.025c0.498-0.586,1.465-1.201,2.52-1.201c1.48,0,2.256,0.748,2.256,2.285v4.967H217.413z"/>
			<path style="fill:#A5B7C6;" d="M219.933,471.744c0-2.051,1.465-3.707,3.486-3.707c2.138,0,3.399,1.67,3.399,3.795v0.277h-5.728
				c0.088,1.334,1.025,2.447,2.549,2.447c0.806,0,1.626-0.322,2.183-0.895l0.527,0.719c-0.703,0.703-1.655,1.084-2.813,1.084
				C221.441,475.465,219.933,473.955,219.933,471.744z M223.404,468.945c-1.509,0-2.256,1.275-2.314,2.359h4.643
				C225.719,470.25,225.016,468.945,223.404,468.945z"/>
			<path style="fill:#A5B7C6;" d="M233.35,475.289v-1.055c-0.527,0.717-1.391,1.23-2.388,1.23c-1.845,0-3.149-1.406-3.149-3.707
				c0-2.256,1.289-3.721,3.149-3.721c0.952,0,1.817,0.469,2.388,1.246v-3.766h1.099v9.771H233.35z M233.35,473.369v-3.207
				c-0.396-0.615-1.244-1.143-2.123-1.143c-1.422,0-2.271,1.172-2.271,2.738c0,1.568,0.85,2.725,2.271,2.725
				C232.105,474.482,232.954,473.984,233.35,473.369z"/>
			<path style="fill:#A5B7C6;" d="M239.691,475.289v-9.771h1.1v3.766c0.571-0.777,1.42-1.246,2.387-1.246
				c1.846,0,3.15,1.465,3.15,3.721c0,2.301-1.305,3.707-3.15,3.707c-0.996,0-1.859-0.514-2.387-1.23v1.055H239.691z M242.9,474.482
				c1.436,0,2.285-1.156,2.285-2.725c0-1.566-0.85-2.738-2.285-2.738c-0.865,0-1.729,0.527-2.109,1.143v3.207
				C241.172,473.984,242.035,474.482,242.9,474.482z"/>
			<path style="fill:#A5B7C6;" d="M247.528,477.06c0.161,0.074,0.425,0.117,0.601,0.117c0.483,0,0.806-0.16,1.055-0.746l0.469-1.07
				l-2.959-7.148h1.188l2.357,5.801l2.344-5.801h1.201l-3.545,8.512c-0.425,1.025-1.143,1.42-2.08,1.436
				c-0.234,0-0.601-0.045-0.806-0.104L247.528,477.06z"/>
		</g>
	</g>
</g>
</svg>
